<svg width="148" height="48" viewBox="0 0 148 48" fill="none" xmlns="http://www.w3.org/2000/svg">
<g id="logo" clip-path="url(#clip0_110_1967)">
<rect width="148" height="48" fill="white"/>
<g id="Group 141">
<rect id="Rectangle 101" width="148" height="48" fill="#1C297B"/>
<g id="Group 140">
<path id="path27513" d="M38.1189 24C38.1189 31.954 31.7084 38.4 23.7973 38.4C15.8861 38.4 9.47375 31.954 9.47375 24C9.47375 16.0469 15.8861 9.59998 23.7973 9.59998C31.7084 9.59998 38.1189 16.0469 38.1189 24Z" fill="white"/>
<path id="path27517" d="M17.2237 24.0001L23.7966 30.6075L30.3686 24.0001L23.7957 17.3926L17.2237 24.0001ZM10.4865 24.0001C10.4865 16.6084 16.4457 10.6172 23.7966 10.6172C31.1466 10.6172 37.1058 16.6084 37.1058 24.0001C37.1058 31.3917 31.1466 37.383 23.7966 37.383C16.4457 37.383 10.4865 31.3917 10.4865 24.0001Z" fill="#E2001A"/>
</g>
<g id="Group 139">
<path id="path27509" d="M87.7443 13.0101C87.7443 13.7675 87.6776 14.2114 87.545 14.3429C87.4271 14.4745 86.9841 14.5389 86.2157 14.5389H85.3296V19.3907C85.3296 20.1043 85.6252 20.4617 86.2157 20.4617C86.9396 20.4617 87.3611 20.5269 87.4783 20.6584C87.5968 20.79 87.6561 21.2484 87.6561 22.0345C87.3611 22.0491 87.0871 22.0564 86.8366 22.0564C85.6252 22.0564 84.7471 21.8531 84.201 21.4451C83.669 21.0225 83.4037 20.3381 83.4037 19.3906V14.5615H82.1849L82.2072 13.4466C82.857 13.4466 83.2193 13.4027 83.2927 13.315C83.3674 13.228 83.4038 12.9071 83.4038 12.3536V10.7589H85.2858V13.01L87.7443 13.0101ZM81.1667 21.9692C80.2213 21.9692 79.6678 21.9047 79.5049 21.7731C79.3574 21.6416 79.284 21.1758 79.284 20.3745V13.0099C80.2294 13.0099 80.7748 13.075 80.923 13.2059C81.0846 13.3228 81.1667 13.7673 81.1667 14.5387V21.9692ZM81.1667 12.4418C80.2213 12.4418 79.6678 12.3767 79.5049 12.2444C79.3574 12.1135 79.284 11.6478 79.284 10.8465V10.2345C80.3028 10.2345 80.8489 10.2558 80.923 10.2996C81.0846 10.3867 81.1667 10.7953 81.1667 11.5235V12.4418ZM77.4237 21.9692C76.6999 21.9692 76.279 21.9187 76.1612 21.817C76.0427 21.7001 75.9841 21.3207 75.9841 20.6808C75.4817 21.613 74.3229 22.0781 72.5068 22.0781C69.9231 22.0781 68.6302 20.5419 68.6302 17.4676C68.6302 14.3939 69.9157 12.8564 72.4846 12.8564C74.0205 12.8564 75.0467 13.265 75.5632 14.0809V9.59998C76.4938 9.59998 77.0318 9.66642 77.1793 9.79798C77.3416 9.92887 77.4237 10.3867 77.4237 11.1734V21.9692ZM75.5854 17.4676C75.5854 16.4769 75.4306 15.756 75.1201 15.3042C74.737 14.7208 74.0502 14.4304 73.0603 14.4304C71.8051 14.4304 71.0752 14.5613 70.8678 14.8225C70.6618 15.071 70.5581 15.9527 70.5581 17.4676C70.5581 18.4729 70.7129 19.2084 71.0227 19.6749C71.4065 20.2429 72.0785 20.5267 73.0381 20.5267C74.3081 20.5267 75.0467 20.4031 75.2535 20.1552C75.475 19.8935 75.5854 18.9978 75.5854 17.4676ZM67.6342 16.7463C67.6342 17.4898 67.5534 17.9264 67.3911 18.0573C67.2282 18.1742 66.6598 18.2327 65.6855 18.2327H60.9456C60.9456 18.9171 61.1598 19.4632 61.588 19.8712C62.0311 20.2792 62.658 20.4838 63.4701 20.4838H65.4633C66.202 20.4838 66.6302 20.5489 66.7487 20.6805C66.8814 20.7968 66.948 21.234 66.948 21.9907H63.5374C60.5396 21.9907 59.0413 20.4838 59.0413 17.4679C59.0413 14.4228 60.5544 12.9006 63.5812 12.9006C64.8956 12.9006 65.9144 13.2713 66.6383 14.0148C67.3022 14.6999 67.6342 15.6102 67.6342 16.7463ZM65.6855 16.7463C65.7003 16.7171 65.7003 16.7025 65.6855 16.7025C65.7151 15.1291 64.9542 14.3431 63.4041 14.3431C62.1927 14.3431 61.4776 14.4441 61.256 14.6487C61.0493 14.8527 60.9456 15.5517 60.9456 16.7463H65.6855ZM58.7976 12.9665C58.7976 13.7818 58.745 14.2549 58.642 14.3864C58.5538 14.5034 58.207 14.5612 57.6017 14.5612C56.8482 14.5612 56.3842 14.714 56.2058 15.0203C56.0731 15.2675 56.0065 15.9306 56.0065 17.009V21.969C55.0617 21.969 54.5082 21.9046 54.3452 21.773C54.1978 21.6414 54.1244 21.1903 54.1244 20.4182V13.0104C54.8476 13.0104 55.2678 13.0602 55.3863 13.1619C55.5041 13.2649 55.564 13.6283 55.564 14.2549C56.0213 13.3227 57.0993 12.8928 58.7976 12.9665ZM52.5298 22.0127H49.0754C47.126 22.0127 45.7227 21.452 44.8668 20.331C44.1874 19.4268 43.848 18.1085 43.848 16.3756C43.848 12.6309 45.59 10.7592 49.0754 10.7592H52.5298C52.5298 11.5598 52.4631 12.0262 52.3305 12.1571C52.2126 12.2887 51.7763 12.3538 51.0241 12.3538H49.0754C47.8499 12.3538 47.089 12.3977 46.794 12.4854C46.3509 12.6016 46.0701 12.9359 45.9523 13.4907C45.8782 13.8986 45.8412 14.8594 45.8412 16.3756C45.8412 17.672 46.0479 18.6248 46.4614 19.2374C46.9637 20.0101 47.8344 20.3955 49.0754 20.3955H50.913C51.7251 20.3955 52.1971 20.4613 52.3305 20.5928C52.4631 20.7244 52.5298 21.1968 52.5298 22.0127Z" fill="white"/>
<path id="path27533" d="M138.09 34.9469C136.865 34.9469 136.127 34.9177 135.875 34.8592C135.565 34.7875 135.226 34.5469 134.857 34.139L131.977 30.9264C131.741 30.664 131.623 30.4454 131.623 30.2706C131.623 30.0959 131.741 29.8773 131.977 29.6155L135.189 25.9657H137.736L133.372 30.2274L138.09 34.9469ZM131.468 34.9469C130.524 34.9469 129.97 34.8825 129.806 34.7509C129.659 34.6194 129.585 34.1609 129.585 33.3735V22.5778C130.531 22.5778 131.077 22.6442 131.225 22.7758C131.387 22.892 131.468 23.3352 131.468 24.108V34.9469ZM127.881 34.9469C126.935 34.9469 126.382 34.8825 126.219 34.7509C126.072 34.6194 125.999 34.1609 125.999 33.3735V29.9643C125.999 29.076 125.873 28.4567 125.622 28.1065C125.296 27.6554 124.684 27.4295 123.783 27.4295C122.616 27.4295 121.931 27.5391 121.723 27.7577C121.532 27.9617 121.435 28.6972 121.435 29.9643V34.9469C120.491 34.9469 119.938 34.8825 119.775 34.7509C119.627 34.6194 119.553 34.1609 119.553 33.3735V26.0089C120.276 26.0089 120.697 26.0607 120.816 26.1624C120.933 26.2641 120.993 26.6282 120.993 27.2554C121.466 26.3372 122.573 25.878 124.315 25.878C125.703 25.878 126.669 26.2641 127.216 27.0361C127.659 27.678 127.881 28.7045 127.881 30.1178V34.9469ZM117.937 34.9469C117.227 34.9469 116.815 34.8898 116.697 34.7729C116.578 34.6566 116.52 34.2626 116.52 33.5915C116.283 33.9855 115.877 34.3131 115.301 34.5762C114.636 34.8825 113.869 35.034 112.998 35.034C111.964 35.034 111.13 34.8154 110.495 34.3795C109.801 33.8985 109.454 33.2134 109.454 32.3244C109.454 31.4367 109.749 30.7297 110.34 30.2048C110.99 29.6367 111.949 29.353 113.219 29.353H116.076C116.076 28.6972 115.877 28.2308 115.479 27.9544C115.095 27.678 114.467 27.5391 113.595 27.5391H111.735C111.042 27.5391 110.636 27.4813 110.517 27.3644C110.399 27.2328 110.34 26.789 110.34 26.0315H113.529C115.227 26.0315 116.408 26.373 117.072 27.0587C117.648 27.6262 117.937 28.5584 117.937 29.8554V34.9469ZM116.076 31.1012V30.8168H113.507C112.459 30.8168 111.846 30.8819 111.669 31.0135C111.492 31.1304 111.403 31.559 111.403 32.3025C111.403 33.1623 112.082 33.5915 113.44 33.5915C114.755 33.5915 115.523 33.4905 115.744 33.2858C115.965 33.0686 116.076 32.3397 116.076 31.1012ZM108.326 31.6913C108.326 33.8759 106.819 34.9689 103.807 34.9689H101.15C100.235 34.9689 99.6945 34.9032 99.5329 34.7729C99.3847 34.6407 99.3107 34.1822 99.3107 33.3955V25.3539C99.3107 24.5519 99.3847 24.0868 99.5329 23.9545C99.6945 23.8243 100.235 23.7579 101.15 23.7579H103.74C106.561 23.7579 107.97 24.7346 107.97 26.6867C107.97 27.9977 107.468 28.7697 106.465 29.0029C107.04 29.1631 107.506 29.5126 107.86 30.0521C108.17 30.5331 108.326 31.0793 108.326 31.6913ZM106.065 26.9492C106.065 25.8847 105.312 25.3539 103.807 25.3539H101.26V28.5219H103.918C104.996 28.5219 105.624 28.4568 105.801 28.3259C105.977 28.1943 106.065 27.7359 106.065 26.9492ZM106.331 31.6693C106.331 30.5624 105.527 30.0082 103.918 30.0082H101.26V33.3955H103.873C105.099 33.3955 105.815 33.3231 106.021 33.1769C106.229 33.0314 106.331 32.5285 106.331 31.6693Z" fill="white"/>
<path id="path27557" d="M97.2652 29.7241C97.2652 30.4676 97.1844 30.9041 97.0221 31.035C96.8592 31.152 96.2908 31.2105 95.3165 31.2105H90.578C90.578 31.8948 90.7914 32.441 91.2197 32.849C91.6628 33.2569 92.2897 33.4616 93.1018 33.4616H95.0949C95.8336 33.4616 96.2619 33.5267 96.3797 33.6582C96.5124 33.7745 96.579 34.2117 96.579 34.9685H93.1684C90.1719 34.9685 88.673 33.4616 88.673 30.4457C88.673 27.4006 90.1861 25.8783 93.2122 25.8783C94.5266 25.8783 95.5454 26.2491 96.2693 26.9926C96.9332 27.6776 97.2652 28.5879 97.2652 29.7241ZM95.3165 29.7241C95.3313 29.6949 95.3313 29.6803 95.3165 29.6803C95.3467 28.1069 94.5852 27.3208 93.0351 27.3208C91.825 27.3208 91.1093 27.4218 90.8877 27.6265C90.681 27.8305 90.578 28.5295 90.578 29.7241H95.3165ZM87.4987 30.4885C87.4987 33.5636 86.222 35.1004 83.6679 35.1004C82.132 35.1004 81.1064 34.6924 80.5893 33.8765V38.4C79.6587 38.4 79.1119 38.3349 78.9496 38.2027C78.8028 38.0864 78.7294 37.6425 78.7294 36.8705V25.9876C79.4378 25.9876 79.8519 26.0461 79.9684 26.1624C80.0869 26.264 80.1462 26.6361 80.1462 27.2767C80.6923 26.3444 81.8518 25.878 83.6235 25.878C86.2065 25.878 87.4987 27.4149 87.4987 30.4885ZM85.5931 30.4885C85.5931 29.4839 85.4389 28.7404 85.1291 28.26C84.7305 27.6919 84.0591 27.4082 83.1144 27.4082C81.8444 27.4082 81.0983 27.5391 80.8775 27.8002C80.6701 28.0633 80.5677 28.959 80.5677 30.4885C80.5677 31.4945 80.7145 32.2227 81.0101 32.6745C81.3946 33.2573 82.0801 33.5489 83.0686 33.5489C84.3393 33.5489 85.0786 33.4247 85.2833 33.1775C85.4921 32.9151 85.5931 32.0187 85.5931 30.4885ZM77.2239 30.4674C77.2239 33.5265 75.7169 35.0561 72.7056 35.0561C69.7225 35.0561 68.231 33.5265 68.231 30.4674C68.231 27.4217 69.7306 25.9008 72.7271 25.9008C75.7243 25.9008 77.2239 27.4217 77.2239 30.4674ZM75.296 30.4674C75.296 29.5053 75.1337 28.7924 74.8098 28.326C74.4105 27.728 73.7163 27.4296 72.7271 27.4296C71.443 27.4296 70.6895 27.5605 70.468 27.823C70.2619 28.0715 70.1582 28.9519 70.1582 30.4674C70.1582 32.5073 71.0067 33.5265 72.7056 33.5265C74.0045 33.5265 74.758 33.4036 74.964 33.1558C75.1863 32.8926 75.296 31.997 75.296 30.4674ZM68.0098 25.9443C68.0098 26.7596 67.9579 27.2327 67.8556 27.3642C67.7667 27.4812 67.4206 27.539 66.8139 27.539C66.0617 27.539 65.5971 27.6918 65.4186 27.9981C65.286 28.2453 65.2193 28.9084 65.2193 29.9868V34.9468C64.2746 34.9468 63.7217 34.8824 63.5588 34.7508C63.4106 34.6192 63.3379 34.1681 63.3379 33.396V25.9882C64.0598 25.9882 64.4806 26.038 64.5998 26.1397C64.717 26.2427 64.7756 26.6061 64.7756 27.2327C65.2341 26.3005 66.3122 25.8706 68.0098 25.9443ZM61.4983 34.9469C60.7751 34.9469 60.3543 34.8965 60.2358 34.7948C60.1193 34.6779 60.0593 34.2985 60.0593 33.6586C59.5725 34.5908 58.4655 35.0559 56.7383 35.0559C55.3343 35.0559 54.3599 34.6779 53.8138 33.9197C53.3708 33.2938 53.1499 32.2812 53.1499 30.8819V25.9877C54.0791 25.9877 54.6185 26.0528 54.766 26.1837C54.9283 26.3152 55.0097 26.789 55.0097 27.6042V31.0354C55.0097 31.9091 55.1424 32.5138 55.4084 32.8493C55.7329 33.2719 56.3538 33.4825 57.2689 33.4825C58.4352 33.4825 59.1139 33.3809 59.3058 33.1769C59.4991 32.959 59.5947 32.2154 59.5947 30.9477V25.9877C60.5395 25.9877 61.0849 26.0528 61.2337 26.1837C61.3946 26.3152 61.4775 26.789 61.4775 27.6042L61.4983 34.9469ZM51.7325 34.9469H45.7739C44.8157 34.9469 44.2534 34.8825 44.0904 34.7509C43.9282 34.6194 43.848 34.1536 43.848 33.3523V25.3545C43.848 24.5518 43.9282 24.0867 44.0904 23.9545C44.2534 23.8243 44.8157 23.7578 45.7739 23.7578H50.138C50.9352 23.7578 51.3999 23.8243 51.5325 23.9545C51.6658 24.0867 51.7325 24.5518 51.7325 25.3545H45.7739V28.4567H49.606C50.3885 28.4567 50.8464 28.5218 50.9797 28.6534C51.1117 28.7843 51.1783 29.2368 51.1783 30.0082H45.7739V33.3523H50.0053C50.8767 33.3523 51.3783 33.4167 51.511 33.549C51.6584 33.6792 51.7325 34.147 51.7325 34.9469Z" fill="white"/>
</g>
</g>
</g>
<defs>
<clipPath id="clip0_110_1967">
<rect width="148" height="48" fill="white"/>
</clipPath>
</defs>
</svg>
