<svg width="168" height="48" viewBox="0 0 168 48" fill="none" xmlns="http://www.w3.org/2000/svg">
<g id="zbs_logo 1">
<g id="Clip path group">
<g id="Group">
<g id="Group 2">
<path id="Vector" d="M155.044 16H157.468L157.474 17.7896H159.83C162.046 17.7896 163.154 18.9827 163.154 21.3688V23.1585C163.154 25.5447 162.046 26.7378 159.83 26.7378H157.468V28.5274H155.044V26.7378H152.682C150.466 26.7378 149.359 25.5447 149.359 23.1585V21.3688C149.359 18.9827 150.466 17.7896 152.682 17.7896H155.038L155.044 16ZM155.038 20.474H152.682C152.078 20.474 151.775 20.7724 151.775 21.3688V23.1585C151.775 23.7551 152.078 24.0534 152.682 24.0534H155.038V20.474ZM157.474 24.0534H159.83C160.434 24.0534 160.737 23.7551 160.737 23.1585V21.3688C160.737 20.7724 160.434 20.474 159.83 20.474H157.474V24.0534Z" fill="#EA2026"/>
<path id="Vector_2" d="M140.985 16H144.61C147.028 16 148.235 17.4913 148.235 20.474V24.9481C148.235 27.3344 147.028 28.5274 144.61 28.5274H140.985C138.567 28.5274 137.359 27.0361 137.359 24.0534V20.474C137.359 17.4913 138.567 16 140.985 16ZM144.61 18.6844H140.985C140.179 18.6844 139.776 19.281 139.776 20.474V24.0534C139.776 25.2465 140.179 25.843 140.985 25.843H144.61C145.416 25.843 145.819 25.2465 145.819 24.0534V20.474C145.819 19.281 145.416 18.6844 144.61 18.6844Z" fill="#EA2026"/>
<path id="Vector_3" d="M132.912 20.9215C133.516 20.9215 133.819 20.6232 133.819 20.0266V19.5792C133.819 18.9827 133.516 18.6844 132.912 18.6844H125.359L125.365 16H132.912C135.128 16 136.235 17.1932 136.235 19.5792V20.0266C136.235 22.4129 135.128 23.6059 132.912 23.6059H127.776V28.5274H125.359V20.9215H132.912Z" fill="#EA2026"/>
<path id="Vector_4" d="M121.818 20.474C121.818 19.281 121.416 18.6844 120.609 18.6844H116.984C116.178 18.6844 115.775 19.281 115.775 20.474V28.5274H113.359V20.474C113.359 17.4913 114.567 16 116.984 16H120.609C123.027 16 124.235 17.1932 124.235 19.5792V28.5274H121.818V20.474Z" fill="#EA2026"/>
<path id="Vector_5" d="M108.912 20.9215C109.517 20.9215 109.819 20.6232 109.819 20.0266V19.5792C109.819 18.9827 109.517 18.6844 108.912 18.6844H101.359L101.365 16H108.912C111.128 16 112.235 17.1932 112.235 19.5792V20.0266C112.235 22.4129 111.128 23.6059 108.912 23.6059H103.776V28.5274H101.359V20.9215H108.912Z" fill="#08A76D"/>
<path id="Vector_6" d="M92.9842 16H96.61C99.0266 16 100.235 17.4913 100.235 20.474V24.9481C100.235 27.3344 99.0266 28.5274 96.61 28.5274H92.9842C90.5672 28.5274 89.3586 27.0361 89.3586 24.0534V20.474C89.3586 17.4913 90.5672 16 92.9842 16ZM96.61 18.6844H92.9842C92.1785 18.6844 91.7757 19.281 91.7757 20.474V24.0534C91.7757 25.2465 92.1785 25.843 92.9842 25.843H96.61C97.4156 25.843 97.8188 25.2465 97.8188 24.0534V20.474C97.8188 19.281 97.4156 18.6844 96.61 18.6844Z" fill="#08A76D"/>
<path id="Vector_7" d="M77.3647 16H86.9483V18.6844H77.3586L77.3647 16ZM77.3586 20.9215H84.9119C85.9513 20.9573 86.8919 21.4047 87.7339 22.2637C88.0682 22.8305 88.2354 23.5761 88.2354 24.5007V24.9481C88.2354 27.3344 87.1275 28.5274 84.9119 28.5274H77.3586V20.9215ZM79.7757 23.6059V25.843H84.9119C85.5162 25.843 85.8183 25.5447 85.8183 24.9481V24.5007C85.8183 23.9042 85.5162 23.6059 84.9119 23.6059H79.7757Z" fill="#08A76D"/>
<path id="Vector_8" d="M76.1492 19.5792V28.5274H73.7321V25.843H69.5445L67.9915 28.5274H64.9702L71.315 17.3422C71.9193 16.4474 72.7249 16 73.7321 16C75.3434 16 76.1492 17.1932 76.1492 19.5792ZM73.7321 19.1318C73.7321 18.8336 73.6817 18.6844 73.581 18.6844C73.4804 18.6844 73.2788 18.9827 72.9768 19.5792L71.0975 23.1585H73.7321V19.1318Z" fill="#08A76D"/>
<path id="Vector_9" d="M55.5921 23.6059V20.9215H61.3447C61.9491 20.9215 62.2511 20.6232 62.2511 20.0266V19.5792C62.2511 18.9827 61.9491 18.6844 61.3447 18.6844H55L55.006 16H61.3447C63.5603 16 64.6682 17.1932 64.6682 19.5792V20.0266C64.6682 20.9513 64.501 21.697 64.1667 22.2637C64.501 22.8305 64.6682 23.5761 64.6682 24.5007V24.9481C64.6682 27.3344 63.5603 28.5274 61.3447 28.5274H55V25.843H61.3447C61.9491 25.843 62.2511 25.5447 62.2511 24.9481V24.5007C62.2511 23.9042 61.9491 23.6059 61.3447 23.6059H55.5921Z" fill="#08A76D"/>
</g>
<g id="Group 317">
<path id="Vector_10" d="M50.9278 15.3735L52 15.2828L51.8798 13.9634L50.9682 14.0406L51.0065 12.7775L49.1485 10L46.4737 12.6981L46.4156 14.426L45.4919 14.5041L45.5589 12.8995L43.2211 10.4621L40.8394 13.1104L40.769 14.904L39.5575 15.0066L39.6137 13.3083L37.0177 10.6702L34.2535 13.596L34.1891 15.4611L32.607 15.595L32.6613 13.8955L29.9132 10.894L26.8425 14.1362L26.7778 16.0886L25.0577 16.2342L25.1148 14.3114L21.8132 11.3912L18.3001 14.8466L18.2402 16.8114L16.4208 16.9654L16.5411 18.2848L18.1997 18.1444L17.6836 35.1005L16 35.4935V36.8563L17.6418 36.473L17.4736 42L24.3483 40.114L24.504 34.871L26.1683 34.4825L25.9989 39.5933L31.8911 37.9766L32.0468 33.1102L33.5922 32.7494L33.4263 37.5552L38.8615 36.0643L39.0128 31.484L40.1281 31.2237L39.9524 35.6971L44.6606 34.4042L44.8394 30.1239L45.8962 29.8772L45.754 34.1051L50.3981 32.8308L50.5207 28.788L51.3214 28.5837V27.2137L50.5626 27.4074L50.9278 15.3735ZM49.3158 27.7161L47.1901 28.2123L47.612 15.6542L49.6871 15.4786L49.3158 27.7161ZM47.6948 13.1919L48.959 11.9167L49.7589 13.1125L49.7275 14.1456L47.6569 14.3209L47.6948 13.1919ZM42.0591 13.5742L43.2508 12.2492L44.3023 13.3454L44.2495 14.6094L42.011 14.7989L42.0591 13.5742ZM44.1937 15.9437L43.6467 29.0395L41.4314 29.5567L41.9586 16.1329L44.1937 15.9437ZM35.6104 14.1271L37.0381 12.6159L38.2217 13.8187L38.1785 15.1234L35.5684 15.3443L35.6104 14.1271ZM38.1345 16.4567L37.6725 30.4341L35.0261 31.052L35.5224 16.6778L38.1345 16.4567ZM28.2002 14.6675L29.8958 12.8769L31.2708 14.3785L31.2282 15.7117L28.157 15.9718L28.2002 14.6675ZM31.1856 17.0449L30.7054 32.0606L27.5999 32.7856L28.1128 17.3051L31.1856 17.0449ZM19.7938 15.459L21.869 13.4181L23.5837 14.9347L23.5413 16.3625L19.7566 16.683L19.7938 15.459ZM19.716 18.016L23.5017 17.6955L23.0217 33.8544L19.2069 34.7449L19.716 18.016ZM22.8687 39.0052L19.0453 40.0541L19.1651 36.1174L22.981 35.2267L22.8687 39.0052ZM24.5448 33.4988L25.0182 17.5671L26.7337 17.4219L26.2138 33.1092L24.5448 33.4988ZM30.5484 36.9679L27.433 37.8227L27.5544 34.159L30.6615 33.4336L30.5484 36.9679ZM32.0907 31.7372L32.5643 16.9282L34.1431 16.7946L33.6397 31.3756L32.0907 31.7372ZM37.5198 35.0553L34.8626 35.7841L34.9787 32.4258L37.6272 31.8075L37.5198 35.0553ZM39.0582 30.1107L39.5135 16.3399L40.7166 16.238L40.1821 29.8484L39.0582 30.1107ZM43.4606 33.4943L41.2529 34.1006L41.3773 30.932L43.5893 30.4157L43.4606 33.4943ZM44.8968 28.7477L45.4361 15.8385L46.3707 15.7594L45.9423 28.5037L44.8968 28.7477ZM47.0455 32.5114L47.1438 29.5859L49.2742 29.0885L49.1881 31.9235L47.0455 32.5114Z" fill="#08A76D"/>
<path id="Vector_11" d="M51.7539 10.9765C51.7539 10.9765 50.2582 4.58431 40.0687 1.15663C29.8792 -2.27105 13.3797 1.68338 6.08814 16.196C-1.20342 30.7088 11.2764 49.1904 33.0108 47.9398C54.7453 46.6891 63.2988 32.7932 64 31.2646C64 31.2646 54.0593 45.9943 34 45.8554C13.9406 45.7164 8.05125 33.2421 9.17303 23.3599C10.2948 13.4777 19.7775 4.54723 31.7489 3.61158C43.7202 2.67594 43.2237 7.98882 51.7539 10.9765Z" fill="#EA2026"/>
</g>
</g>
</g>
</g>
</svg>
