<svg width="48" height="48" viewBox="0 0 48 48" fill="none" xmlns="http://www.w3.org/2000/svg">
<g id="map">
<g id="Group 316">
<path id="pin 1 (Traced)" fill-rule="evenodd" clip-rule="evenodd" d="M22.1711 4.5215C17.4795 5.08316 13.1488 7.92828 10.8515 11.9582C9.95963 13.5226 9.35776 15.1678 8.98041 17.0729C8.85151 17.7233 8.81307 18.3788 8.81251 19.9323C8.81195 21.6696 8.84185 22.0959 9.0287 23.0191C9.44738 25.087 10.2669 27.1101 11.3671 28.7917C12.1459 29.982 22.9464 43.0934 23.3227 43.3052C23.7282 43.5335 24.5735 43.4848 24.9188 43.2132C25.3406 42.8814 36.1438 29.6821 36.7224 28.7917C37.8415 27.0692 38.6443 25.0898 39.0636 23.0191C39.2502 22.0968 39.2804 21.6677 39.2804 19.9323C39.2804 18.2103 39.2496 17.7645 39.0686 16.8719C38.7036 15.0714 38.0525 13.3483 37.1607 11.8229C35.0631 8.23456 31.4217 5.63863 27.2279 4.74163C26.4364 4.57231 25.8908 4.5275 24.3743 4.50725C23.343 4.49347 22.3516 4.49994 22.1711 4.5215ZM25.4055 13.6639C27.3971 14.0891 29.2794 15.9244 29.8153 17.9636C30.028 18.7732 30.0291 20.1688 29.8174 20.9636C29.2846 22.9647 27.5472 24.702 25.5461 25.2348C24.7513 25.4465 23.3558 25.4455 22.5461 25.2328C20.9474 24.8126 19.4229 23.5582 18.725 22.0886C18.246 21.0798 18.1071 20.4753 18.1108 19.4167C18.1168 17.7676 18.6566 16.5006 19.8699 15.2873C21.4088 13.7485 23.2593 13.2058 25.4055 13.6639Z" fill="#08A76D"/>
</g>
</g>
</svg>
