<svg width="48" height="48" viewBox="0 0 48 48" fill="none" xmlns="http://www.w3.org/2000/svg">
<g id="rule" clip-path="url(#clip0_61_1384)">
<path id="ruler 1 (Traced)" fill-rule="evenodd" clip-rule="evenodd" d="M14.9198 6.07723C7.45737 6.74688 1.87118 10.4092 0.277903 15.6767C0.00255903 16.5869 -0.113691 30.2531 0.14234 31.6106C0.98759 36.092 5.44728 39.9807 11.3104 41.3485C13.6787 41.901 12.5233 41.8681 30.7294 41.9017L47.4297 41.9326L47.7216 41.6869L48.0135 41.4412V35.0684C48.0135 30.8768 47.9805 28.6339 47.917 28.5153C47.6648 28.044 47.795 28.0517 40.1045 28.0517H32.9361L32.8975 22.4501L32.8587 16.8485L32.6104 15.911C30.9921 9.80267 22.9878 5.35329 14.9198 6.07723ZM19.701 8.31223C31.2553 10.2829 34.7915 20.3077 25.8233 25.6686C17.4297 30.6862 4.20387 27.3709 2.26503 19.7632C0.502153 12.8462 9.94053 6.6476 19.701 8.31223ZM15.1836 12.6776C9.14759 13.6354 7.13122 19.1958 11.7323 22.1952C16.894 25.5602 24.9012 22.0786 23.5887 17.04C22.8289 14.1229 18.9061 12.0869 15.1836 12.6776ZM18.2372 14.8302C21.9257 15.7735 22.8622 18.8491 19.9919 20.5927C16.6906 22.5981 11.2635 21.0278 11.2635 18.0673C11.2635 15.715 14.9699 13.9945 18.2372 14.8302ZM30.951 25.8954V28.0517L28.3026 28.051L25.6542 28.0503L26.3763 27.6378C27.9834 26.7198 29.7136 25.2919 30.576 24.1723C30.7565 23.938 30.9147 23.7447 30.9276 23.7427C30.9404 23.7408 30.951 24.7095 30.951 25.8954ZM4.42812 26.2077C6.31297 27.7158 9.04878 28.9735 11.702 29.5517C14.1141 30.0773 13.3018 30.0539 30.3182 30.0889L46.0448 30.1214V35.0396V39.9579H45.1596H44.2744L44.2455 37.3564C44.2137 34.4874 44.2086 34.4616 43.6181 34.1815C43.1758 33.9716 42.6389 34.1315 42.3844 34.5489C42.2152 34.8265 42.2017 35.0364 42.2014 37.4032L42.201 39.9579H40.326H38.451V38.547C38.451 36.7845 38.2293 36.3017 37.4198 36.3017C36.6197 36.3017 36.3885 36.816 36.3885 38.5955V39.9579H34.5135H32.6385L32.6371 38.5282C32.6353 36.6959 32.3586 36.175 31.4748 36.3409C30.7556 36.4758 30.6698 36.6976 30.6698 38.4238V39.9579H28.7479H26.826V37.3401V34.7223L26.586 34.4371C26.2849 34.0792 25.8318 33.9792 25.4368 34.1835C24.8593 34.4821 24.8573 34.4935 24.8573 37.3538V39.9579H23.0292H21.201V38.4594V36.9609L20.9275 36.6547C20.5306 36.2106 19.9027 36.2106 19.5058 36.6547L19.2323 36.9609V38.4594V39.9579H17.3104H15.3885V38.4238C15.3885 36.6976 15.3027 36.4758 14.5835 36.3409C13.7211 36.179 13.423 36.7062 13.4212 38.3959L13.4198 39.6932L13.0213 39.6313C8.19022 38.8808 3.88118 35.9339 2.58312 32.4925C2.1289 31.2883 2.07603 30.7354 2.07603 27.1876V23.9024L2.8834 24.7601C3.3275 25.2319 4.02265 25.8832 4.42812 26.2077Z" fill="#08A76D"/>
</g>
<defs>
<clipPath id="clip0_61_1384">
<rect width="48" height="48" fill="white"/>
</clipPath>
</defs>
</svg>
