<svg width="48" height="48" viewBox="0 0 48 48" fill="none" xmlns="http://www.w3.org/2000/svg">
<g id="date">
<path id="schedule 1 (Traced)" fill-rule="evenodd" clip-rule="evenodd" d="M12.7297 3.28287C12.1718 3.64025 12.0469 3.97006 12.0469 5.08484V6.07653L9.21094 6.10503L6.375 6.13353L5.643 6.48303C4.65722 6.95375 3.91397 7.697 3.44325 8.68278L3.09375 9.41478V25.5867V41.7585L3.44325 42.4905C3.91397 43.4763 4.65722 44.2196 5.643 44.6903L6.375 45.0398H24.0469H41.7188L42.4508 44.6903C43.4365 44.2196 44.1798 43.4763 44.6505 42.4905L45 41.7585V25.5867V9.41478L44.6505 8.68278C44.1798 7.697 43.4365 6.95375 42.4508 6.48303L41.7188 6.13353L38.8828 6.10503L36.0469 6.07653V5.08484C36.0469 3.64193 35.6301 3.08665 34.5469 3.08665C33.4624 3.08665 33.0469 3.64147 33.0469 5.0899V6.08665H29.2969H25.5469V5.0899C25.5469 3.64147 25.1314 3.08665 24.0469 3.08665C22.9624 3.08665 22.5469 3.64147 22.5469 5.0899V6.08665H18.7969H15.0469V5.0899C15.0469 3.38159 13.9325 2.51253 12.7297 3.28287ZM12.0469 10.0834C12.0469 11.5318 12.4624 12.0867 13.5469 12.0867C14.6314 12.0867 15.0469 11.5318 15.0469 10.0834V9.08665H18.7969H22.5469V10.0834C22.5469 11.5318 22.9624 12.0867 24.0469 12.0867C25.1314 12.0867 25.5469 11.5318 25.5469 10.0834V9.08665H29.2969H33.0469V10.0834C33.0469 11.5318 33.4624 12.0867 34.5469 12.0867C35.6314 12.0867 36.0469 11.5318 36.0469 10.0834V9.08665H38.2553C41.887 9.08665 42.0453 9.21293 42.0463 12.1101L42.0469 13.5867H24.0469H6.04688V12.1282C6.04688 9.21321 6.1755 9.1085 9.77344 9.09509L12.0469 9.08665V10.0834ZM42.0463 28.5632C42.0457 41.3794 42.0576 41.0644 41.5596 41.5858C41.0642 42.1046 41.691 42.0867 24.0288 42.0861C6.55575 42.0855 7.12716 42.1011 6.57113 41.6128C6.03131 41.1389 6.04688 41.5259 6.04688 28.5451V16.5867H24.0469H42.0469L42.0463 28.5632ZM22.0011 18.2223C12.4464 20.0315 9.46491 32.4812 17.1938 38.2956C24.6752 43.9237 35.2969 38.6683 35.2969 29.3386C35.2969 22.3088 28.8566 16.9242 22.0011 18.2223ZM25.7479 21.3222C29.4728 22.0706 32.2144 25.4683 32.2144 29.3367C32.2144 36.6245 23.436 40.257 18.2812 35.1023C12.5433 29.3643 17.7693 19.7196 25.7479 21.3222ZM26.625 25.7322C26.4703 25.8117 25.5532 26.6649 24.5869 27.6282L22.8299 29.3799L22.2431 28.8064C21.2153 27.802 20.1621 27.7227 19.5355 28.6026C18.9219 29.4642 19.1397 30.0697 20.5962 31.5512C22.1155 33.0966 22.7355 33.3897 23.5594 32.9522C23.9469 32.7464 28.6183 28.0134 28.73 27.7134C29.2217 26.3916 27.8517 25.1022 26.625 25.7322Z" fill="#08A76D"/>
</g>
</svg>
