<svg width="48" height="48" viewBox="0 0 48 48" fill="none" xmlns="http://www.w3.org/2000/svg">
<g id="shield">
<g id="shield (2) 1 (Traced)">
<path id="Layer 2" fill-rule="evenodd" clip-rule="evenodd" d="M14.072 5.47388C7.79981 9.11935 4.59103 11.0353 4.46259 11.2117C4.27191 11.4734 4.26937 11.5697 4.24416 19.541L4.21875 27.6055L4.55766 28.9649C4.74403 29.7126 5.08706 30.8516 5.31984 31.4962C5.55272 32.1407 6.01341 33.2347 6.34369 33.9272C6.67397 34.6197 7.20478 35.6111 7.52334 36.1303C7.84191 36.6495 8.31234 37.3696 8.56894 37.7305C8.82544 38.0915 9.26644 38.6821 9.54881 39.043C9.83128 39.404 10.7208 40.3548 11.5254 41.1561C12.3535 41.9807 13.4562 42.9626 14.0665 43.4189C14.6595 43.8623 15.5243 44.4654 15.9884 44.7592C16.4525 45.0531 17.5493 45.6469 18.4259 46.0788C19.4422 46.5796 20.5972 47.0568 21.6134 47.3957C22.662 47.7453 23.4157 47.9415 23.8165 47.9691C24.2894 48.0017 24.6149 47.9558 25.2697 47.7641C25.7337 47.6283 26.5986 47.3416 27.1915 47.1271C27.7845 46.9125 28.9236 46.4117 29.7228 46.0142C30.522 45.6167 31.5556 45.0515 32.0197 44.7582C32.4837 44.4649 33.3486 43.8627 33.9415 43.4199C34.5747 42.9471 35.641 41.994 36.5255 41.1102C37.3538 40.2826 38.3068 39.2469 38.6436 38.8087C38.9803 38.3704 39.5095 37.6321 39.8198 37.168C40.1299 36.704 40.5788 35.9837 40.8174 35.5674C41.056 35.1513 41.4797 34.3286 41.7589 33.7393C42.0381 33.1501 42.4567 32.1407 42.689 31.4962C42.9214 30.8516 43.264 29.7126 43.4504 28.9649L43.7893 27.6055L43.7639 19.541C43.7387 11.5515 43.7366 11.474 43.5442 11.2099C43.4138 11.031 40.2487 9.14082 33.9348 5.47126C24.5856 0.0376021 24.516 -0.000741799 24.004 8.20133e-06C23.4929 0.000758201 23.4064 0.0484772 14.072 5.47388ZM32.4797 8.01179L40.8795 12.8868L40.8558 20.293L40.8322 27.6993L40.4765 28.8712C40.2808 29.5157 39.9287 30.5282 39.694 31.1212C39.4593 31.7141 39.0187 32.6766 38.7147 33.26C38.4108 33.8434 37.8981 34.7292 37.5753 35.2284C37.2525 35.7278 36.6545 36.5583 36.2464 37.074C35.8383 37.5898 35.0367 38.4764 34.4651 39.0443C33.8935 39.6122 33.068 40.3618 32.6304 40.7101C32.1929 41.0585 31.4153 41.6237 30.9025 41.9662C30.3897 42.3086 29.4188 42.8751 28.7449 43.2248C28.071 43.5745 27.0345 44.0481 26.4415 44.277C25.8486 44.5059 25.0649 44.7821 24.7 44.8907L24.0367 45.0881L23.2469 44.858C22.8126 44.7314 22.0142 44.4549 21.4728 44.2437C20.9314 44.0325 19.9332 43.5717 19.2546 43.2198C18.576 42.8679 17.6057 42.303 17.0983 41.9645C16.591 41.6259 15.8173 41.0627 15.379 40.7128C14.9408 40.363 14.1145 39.6122 13.5429 39.0443C12.9713 38.4764 12.1698 37.5898 11.7617 37.074C11.3536 36.5583 10.7556 35.7278 10.4328 35.2284C10.11 34.7292 9.59728 33.8434 9.29334 33.26C8.98941 32.6766 8.54878 31.7141 8.31403 31.1212C8.07938 30.5282 7.72725 29.5157 7.53159 28.8712L7.17591 27.6993L7.15266 20.293L7.1295 12.8868L15.5433 7.9966C20.171 5.30701 23.9847 3.11326 24.0185 3.1216C24.0522 3.12995 27.8598 5.33054 32.4797 8.01179ZM33.3228 16.6758C33.1217 16.8262 30.3443 19.4427 27.1507 22.4904C23.9571 25.538 21.3119 28.02 21.2723 28.0059C21.2329 27.992 19.7747 26.421 18.032 24.515C16.2893 22.6089 14.7201 20.9531 14.5448 20.8353C14.3402 20.6978 14.0888 20.6217 13.8417 20.6227C13.6178 20.6236 13.3046 20.7117 13.0919 20.8336C12.891 20.9488 12.6485 21.19 12.5528 21.3697C12.4572 21.5494 12.379 21.8664 12.379 22.0743C12.379 22.2821 12.4528 22.5859 12.5431 22.7493C12.6334 22.9127 14.4088 24.9062 16.4887 27.1793C18.5685 29.4524 20.391 31.3747 20.5387 31.4511C20.6864 31.5274 21.0098 31.5884 21.2572 31.5866C21.5047 31.5848 21.7988 31.5321 21.9107 31.4694C22.0227 31.4068 25.0734 28.5361 28.6901 25.0902C32.3068 21.6443 35.3475 18.6911 35.4472 18.5277C35.5553 18.3502 35.6284 18.0607 35.6284 17.8087C35.6284 17.5527 35.5551 17.2666 35.442 17.0813C35.3395 16.9132 35.1183 16.6919 34.9502 16.5894C34.7511 16.468 34.4781 16.403 34.1665 16.4028C33.7841 16.4025 33.6153 16.4572 33.3228 16.6758Z" fill="#08A76D"/>
</g>
</g>
</svg>
