<svg width="48" height="48" viewBox="0 0 48 48" fill="none" xmlns="http://www.w3.org/2000/svg">
<g id="wallet" clip-path="url(#clip0_61_1400)">
<path id="wallet (5) 1 (Traced)" fill-rule="evenodd" clip-rule="evenodd" d="M14.306 3.14366L5.69321 6.28732L5.26943 6.59187C4.45223 7.17922 3.93686 8.21905 3.93705 9.28034L3.93714 9.80227L4.34883 10.9974L4.76043 12.1926L4.51278 12.1937C4.07859 12.1957 3.32691 12.4393 2.63729 12.8017L1.96801 13.1534L1.40502 13.7553C0.806045 14.3956 0.397351 15.1062 0.151104 15.9357L0 16.4448V30.1035V43.7622L0.184099 44.3579C0.708277 46.0546 2.11602 47.401 3.84744 47.8618L4.35877 47.9978L22.5771 47.999L40.7954 48.0001L41.3714 47.8516C41.6881 47.77 42.2004 47.5696 42.5097 47.4064L43.0722 47.1096L43.6814 46.5003L44.2907 45.891L44.5925 45.321C44.7584 45.0075 44.9588 44.503 45.0377 44.1998L45.1812 43.6488V40.3482V37.0478L45.4859 36.9834C45.6535 36.9479 46.0366 36.7892 46.3374 36.6305L46.8843 36.3422L47.1931 35.9611C47.3631 35.7515 47.6021 35.3901 47.7242 35.1581L47.9465 34.7363L47.9732 30.1321L48 25.5281L47.794 24.9774L47.5879 24.4266L47.0635 23.9022L46.539 23.3777L45.9972 23.1751C45.6992 23.0635 45.3937 22.9723 45.3183 22.9723H45.1812V19.7086V16.4448L45.0301 15.9357C44.947 15.6556 44.7515 15.1739 44.5957 14.8652L44.3124 14.3039L43.6922 13.6882C42.8003 12.8027 41.9096 12.3508 40.7781 12.2097L40.26 12.1452L40.2132 9.94259L40.1663 7.74005L39.9366 7.27137C39.8103 7.01359 39.4926 6.58774 39.2306 6.325L38.7544 5.84731L38.1949 5.62338L37.6354 5.39944L32.7742 5.35116L27.913 5.30289L27.2894 3.56876C26.4577 1.25664 26.1947 0.862755 25.1215 0.322737L24.606 0.0632725L23.7623 0.0315894L22.9187 0L14.306 3.14366ZM24.0503 3.24246C24.1261 3.42393 24.3293 3.96732 24.5019 4.45016L24.8157 5.32801L24.156 5.39297C23.7932 5.42868 23.2622 5.54557 22.9761 5.65262L22.4558 5.84731L21.9796 6.325C21.7176 6.58774 21.4 7.01359 21.2737 7.27137L21.044 7.74005L21.0157 9.92009L20.9874 12.1L14.4154 12.076L7.84335 12.052L7.34308 10.7036C6.78656 9.20376 6.78047 9.17395 6.99475 8.99603C7.21466 8.81362 23.337 2.93434 23.6499 2.92253L23.9125 2.9126L24.0503 3.24246ZM37.1723 8.38852L37.3542 8.52135L37.3834 10.3101L37.4124 12.0988H30.6051H23.7979L23.8269 10.3101L23.8561 8.52135L24.038 8.38852L24.22 8.25561H30.6051H36.9903L37.1723 8.38852ZM40.8762 15.2039C41.3811 15.4335 41.8554 15.8927 42.0996 16.3884L42.3184 16.8325L42.3515 19.8461L42.3847 22.8596L39.2602 22.9016L36.1356 22.9436L35.4057 23.1424C32.8961 23.8263 30.9138 25.8677 30.3201 28.3798L30.1608 29.0536L30.2053 30.2546L30.2498 31.4555L30.4954 32.2054C30.6304 32.6179 30.8996 33.2295 31.0934 33.5646L31.4459 34.1739L32.2468 34.9706C33.1656 35.8845 33.7797 36.2773 34.9394 36.6921L35.7607 36.986L39.0716 37.015L42.3825 37.0438L42.3515 40.1552L42.3206 43.2664L42.1545 43.6363C41.8839 44.2391 41.5608 44.5912 41.0411 44.8503L40.5513 45.0942H22.5906H4.62995L4.14018 44.8503C3.62087 44.5914 3.29842 44.2402 3.02592 43.6363L2.85898 43.2664L2.83273 30.4713L2.80649 17.6762L2.89872 17.0779L2.99096 16.4798L3.22596 16.1247C3.54185 15.6473 4.04475 15.2787 4.57633 15.1348L5.01493 15.0161L22.7781 15.0338L40.5413 15.0515L40.8762 15.2039ZM44.9524 25.9174L45.1344 26.0504L45.1609 29.8661L45.1874 33.6819L45.0416 33.9044L44.8957 34.127H40.6943H36.493L35.9469 33.9392C34.8081 33.5473 33.9818 32.8088 33.4374 31.6963L33.136 31.0806V29.9977V28.9149L33.4845 28.2097L33.8331 27.5046L34.3508 27.0149L34.8686 26.5252L35.4754 26.2413C36.3597 25.8274 36.6006 25.8076 40.8749 25.7955L44.7705 25.7844L44.9524 25.9174ZM36.698 28.643C36.4918 28.719 36.3141 28.7819 36.303 28.7826C36.292 28.7834 36.176 28.9414 36.0453 29.1338L35.8075 29.4837V30.028V30.5722L36.1757 30.9671L36.5439 31.3618H37.2136H37.8833L38.2514 30.9671L38.6196 30.5722V30.0441V29.516L38.4556 29.2372C38.2558 28.8976 37.8407 28.6306 37.4011 28.5586L37.073 28.505L36.698 28.643Z" fill="#08A76D"/>
</g>
<defs>
<clipPath id="clip0_61_1400">
<rect width="48" height="48" fill="white"/>
</clipPath>
</defs>
</svg>
