<svg width="48" height="48" viewBox="0 0 48 48" fill="none" xmlns="http://www.w3.org/2000/svg">
<g id="car">
<path id="express-delivery 1 (Traced)" fill-rule="evenodd" clip-rule="evenodd" d="M5.19316 7.90729C4.45636 8.27209 4.40379 8.48321 4.40379 11.0808V13.3404L3.77128 13.3425C2.58478 13.3463 1.96847 13.8452 1.96782 14.8024C1.96707 15.7535 2.56547 16.2449 3.72442 16.2451L4.40379 16.2453V17.604V18.9628L2.78737 18.9648C0.529156 18.9677 0.000844391 19.2444 1.04117e-06 20.4248C-0.000842309 21.5981 0.510322 21.8673 2.74051 21.8675L4.40379 21.8676V28.5069V35.1461L4.61462 35.4559C5.06816 36.1223 5.16871 36.1528 7.08592 36.2046L8.81807 36.2514L9.02816 36.7691C10.8656 41.2947 17.4962 41.4794 19.5996 37.0635L20.0058 36.2108H26.6589H33.312L33.7181 37.0635C35.8391 41.5163 42.5893 41.268 44.3306 36.6731L44.4904 36.2514L45.7886 36.2046C47.2187 36.153 47.5355 36.0367 47.8377 35.4522C48.0754 34.9927 48.0423 24.6449 47.8019 24.2571C47.4599 23.7053 39.355 15.4199 39.0548 15.3153C38.8745 15.2524 37.7491 15.2145 36.0623 15.2145H33.3588L33.3584 11.9583C33.3581 8.25035 33.3587 8.25391 32.5838 7.90214C31.9461 7.61259 5.77845 7.61765 5.19316 7.90729ZM30.5161 14.8551C30.4819 17.1827 30.4539 22.2854 30.4539 26.1943V33.3013L25.2895 33.277L20.1251 33.2529L19.9649 32.7349C18.3105 27.3875 10.4865 27.3043 8.87411 32.617L8.66739 33.2979L7.98803 33.2989L7.30866 33.2997V27.5837V21.8676H11.1367C14.9523 21.8676 14.9658 21.867 15.2746 21.6568C16.2252 21.0099 16.2511 19.8898 15.3314 19.2028C15.0813 19.016 14.9439 19.0088 11.1907 18.9832L7.30866 18.9568V17.601V16.2453H11.6521H15.9955L16.3053 16.0345C17.256 15.3875 17.2818 14.2675 16.3621 13.5805C16.1107 13.3927 15.9802 13.3865 11.7061 13.3611L7.30866 13.3351V11.979V10.623H18.9434H30.5782L30.5161 14.8551ZM40.0659 20.3449C41.2505 21.569 42.4245 22.7919 42.6748 23.0624L43.1299 23.5543H38.2443H33.3588V20.8369V18.1194H35.6354H37.9121L40.0659 20.3449ZM45.1657 29.8795V33.2997L44.908 33.2989C44.6697 33.298 44.6348 33.2468 44.4436 32.617C42.9768 27.7841 36.0241 27.2468 33.7498 31.7906L33.3588 32.5718V29.5155V26.4592H39.2623H45.1657V29.8795ZM15.6884 31.8398C17.0233 32.4929 17.6644 34.0993 17.1447 35.4887C16.0167 38.5033 11.5157 37.7312 11.4852 34.5179C11.464 32.2861 13.6951 30.8646 15.6884 31.8398ZM40.1255 31.7789C41.6283 32.4436 42.2688 34.2574 41.5304 35.7579C40.3959 38.0632 37.074 37.8963 36.1731 35.4887C35.2726 33.0819 37.7707 30.7372 40.1255 31.7789Z" fill="#08A76D"/>
</g>
</svg>
