<?xml version="1.0" encoding="utf-8"?><svg xmlns="http://www.w3.org/2000/svg" xmlns:xlink="http://www.w3.org/1999/xlink"><symbol viewBox="0 0 22 24" id="basket" xmlns="http://www.w3.org/2000/svg"><g clip-path="url(#aa)"><path d="M10.363 18.443a2.046 2.046 0 0 0-2.045 2.042 2.046 2.046 0 0 0 4.09 0 2.046 2.046 0 0 0-2.045-2.042Zm6.134 0a2.046 2.046 0 0 0-2.045 2.042 2.046 2.046 0 0 0 4.089 0 2.046 2.046 0 0 0-2.044-2.042Zm3.978-8.199L7.413 6.891a.614.614 0 0 0-.75.73L8.67 16.4h-.786L5.482 5.895a.613.613 0 0 0-.474-.464l-4.27-.882A.614.614 0 0 0 .489 5.75l3.885.802L6.797 17.15a.613.613 0 0 0 .598.477h12.07a.615.615 0 0 0 .607-.53l.858-6.175a.613.613 0 0 0-.455-.678Zm-8.14 3.91a.613.613 0 0 1-1.227 0v-2.696a.613.613 0 0 1 1.227 0v2.696Zm2.625 0a.613.613 0 0 1-1.227 0v-1.88a.613.613 0 0 1 1.227 0v1.88Zm2.625 0a.613.613 0 0 1-1.227 0v-1.226a.613.613 0 0 1 1.227 0v1.226Z"/></g><path fill-rule="evenodd" clip-rule="evenodd" d="M16.268 4.568a2.996 2.996 0 0 0-1.693-.523c-.627 0-1.21.193-1.693.523-.28-.843-.492-1.752-.492-2.383C12.39.98 13.37 0 14.575 0s2.185.98 2.185 2.185c0 .631-.212 1.54-.492 2.383Zm-4.722 2.274.024.006v-.011l-.024.005Zm4.972 1.217c-1.333-.33-2.766-.681-4.129-1.013a2.185 2.185 0 1 1 4.129 1.013Zm4.436 1.103c-.866-.217-2.155-.538-3.618-.9a2.995 2.995 0 0 0 .243-1.425c.87.18 1.762.45 2.308.765.596.344.969.928 1.067 1.56ZM9.869 6.439c-.36-.086-.706-.167-1.03-.243a2.19 2.19 0 0 1-.376-2.667 2.188 2.188 0 0 1 3.147-.7c.098.738.338 1.599.61 2.353a3.01 3.01 0 0 0-.449.774c-.628.113-1.305.278-1.902.483Zm10.124.075a3.43 3.43 0 0 1-.217.114c-.696-.295-1.587-.526-2.397-.672a3.01 3.01 0 0 0-.449-.774c.262-.727.494-1.553.599-2.273.095-.067.189-.128.278-.18a2.188 2.188 0 0 1 2.986.8 2.188 2.188 0 0 1-.8 2.985Z"/><defs><clipPath id="aa"><path transform="translate(0 3.064)" d="M0 0h20.936v20.936H0z"/></clipPath></defs></symbol><symbol viewBox="0 0 20 20" id="calc" xmlns="http://www.w3.org/2000/svg"><path fill-rule="evenodd" clip-rule="evenodd" d="M4.46.884c-.905.194-1.68.96-1.897 1.873-.086.36-.083 14.142.002 14.504.213.903 1.004 1.673 1.914 1.863.41.086 10.645.086 11.054 0 .736-.154 1.386-.67 1.738-1.379.248-.5.234-.048.234-7.742 0-7.827.02-7.243-.282-7.828a2.57 2.57 0 0 0-1.69-1.293C15.136.798 4.848.8 4.46.884ZM15.403 2.63a.773.773 0 0 1 .377.455c.065.19.065 13.645 0 13.836a.773.773 0 0 1-.377.455l-.183.107H4.79l-.183-.107a.773.773 0 0 1-.377-.455c-.064-.19-.065-13.645 0-13.836a.814.814 0 0 1 .6-.546c.064-.016 2.428-.026 5.253-.023l5.137.006.183.108ZM6.417 4.202a.887.887 0 0 0-.59.792c-.002.356.26.71.601.81.29.087 6.867.087 7.156 0a.88.88 0 0 0 .602-.801.88.88 0 0 0-.602-.802c-.277-.082-6.903-.081-7.167.001Zm-.103 3.374a.828.828 0 0 0-.406 1.098c.107.236.177.308.407.416a.79.79 0 0 0 .893-.109.82.82 0 0 0 .297-.65c.003-.602-.636-1.007-1.19-.755Zm3.307.011a.832.832 0 0 0-.246 1.293c.35.388.853.403 1.228.038.526-.513.147-1.415-.593-1.415a.868.868 0 0 0-.389.084Zm3.373-.02c-.31.164-.488.444-.487.764a.838.838 0 0 0 .859.851c.156 0 .495-.148.593-.258.107-.12.225-.414.226-.562a.87.87 0 0 0-.485-.785c-.196-.09-.545-.094-.706-.01Zm-6.68 3.349c-.229.108-.3.18-.406.416a.8.8 0 0 0 .12.873c.491.596 1.48.24 1.477-.53-.002-.638-.616-1.03-1.19-.76Zm3.38-.03a1.182 1.182 0 0 0-.285.202c-.527.514-.147 1.415.597 1.415a.848.848 0 0 0 .836-.71c.093-.623-.578-1.154-1.148-.908Zm3.378-.021c-.174.05-.41.264-.492.444-.253.557.15 1.196.755 1.193a.838.838 0 0 0 .85-.859c0-.156-.148-.495-.258-.593a.97.97 0 0 0-.854-.185ZM9.755 14.2a.85.85 0 0 0-.441.334.831.831 0 0 0 .693 1.305c.89 0 1.161-1.19.362-1.594a.827.827 0 0 0-.614-.045Z"/></symbol><symbol viewBox="0 0 24 24" id="call" xmlns="http://www.w3.org/2000/svg"><g fill-rule="evenodd" clip-rule="evenodd"><path d="M6.004 2.774c-.224.062-2.576 2.422-2.807 2.817-.716 1.22-.538 2.87.515 4.793 1.764 3.218 6.377 7.881 9.666 9.771 2.058 1.183 3.76 1.403 5.034.652.294-.172 2.569-2.378 2.741-2.656.12-.195.132-.581.024-.784-.105-.2-3.212-3.279-3.404-3.375-.28-.14-.49-.079-2.207.65l-1.617.686-2.636-2.636-2.635-2.636.685-1.618c.744-1.755.792-1.924.634-2.23-.055-.105-.785-.87-1.705-1.785C6.485 2.624 6.5 2.635 6.004 2.773Zm10.605.555c-.36.218-.34.007-.34 3.656 0 3.168.003 3.262.094 3.41.282.463 1.03.463 1.313 0 .145-.238.145-6.582 0-6.82-.203-.333-.727-.454-1.067-.246Zm-3 1.5c-.342.208-.34.193-.34 2.156 0 1.672.005 1.765.094 1.91.282.463 1.03.463 1.313 0 .144-.236.144-3.584 0-3.82-.203-.333-.728-.454-1.067-.246Zm6 .75c-.318.193-.34.281-.34 1.406 0 .923.008 1.02.094 1.16.282.463 1.03.463 1.313 0 .142-.232.142-2.088 0-2.32-.203-.333-.727-.454-1.067-.246Z"/><path d="M6.004 2.774c-.224.062-2.576 2.422-2.807 2.817-.716 1.22-.538 2.87.515 4.793 1.764 3.218 6.377 7.881 9.666 9.771 2.058 1.183 3.76 1.403 5.034.652.294-.172 2.569-2.378 2.741-2.656.12-.195.132-.581.024-.784-.105-.2-3.212-3.279-3.404-3.375-.28-.14-.49-.079-2.207.65l-1.617.686-2.636-2.636-2.635-2.636.685-1.618c.744-1.755.792-1.924.634-2.23-.055-.105-.785-.87-1.705-1.785C6.485 2.624 6.5 2.635 6.004 2.773Zm10.605.555c-.36.218-.34.007-.34 3.656 0 3.168.003 3.262.094 3.41.282.463 1.03.463 1.313 0 .145-.238.145-6.582 0-6.82-.203-.333-.727-.454-1.067-.246Zm-3 1.5c-.342.208-.34.193-.34 2.156 0 1.672.005 1.765.094 1.91.282.463 1.03.463 1.313 0 .144-.236.144-3.584 0-3.82-.203-.333-.728-.454-1.067-.246Zm6 .75c-.318.193-.34.281-.34 1.406 0 .923.008 1.02.094 1.16.282.463 1.03.463 1.313 0 .142-.232.142-2.088 0-2.32-.203-.333-.727-.454-1.067-.246Z"/></g></symbol><symbol viewBox="0 0 344.96 344.96" id="check" xmlns="http://www.w3.org/2000/svg"><g data-name="Слой 2"><path class="dcls-1" d="m321.85 86.24-40-23.11-23.1-40H212.5L172.48 0l-40 23.11H86.24l-23.11 40-40 23.1v46.21L0 172.48l23.11 40v46.21l40 23.11 23.11 40h46.21l40 23.1 40-23.11h46.21l23.11-40 40-23.11V212.5l23.11-40-23.11-40V86.24ZM156.91 243.07a16.79 16.79 0 0 1-23.34 0l-50.45-50.44a16.19 16.19 0 0 1 0-22.89l13.35-13.35a16.19 16.19 0 0 1 22.89 0l25.87 25.87 80.34-80.35a16.19 16.19 0 0 1 22.89 0l13.35 13.35a16.19 16.19 0 0 1 0 22.89Z" data-name="Capa 1"/></g></symbol><symbol viewBox="0 0 20 20" id="chevron-down" xmlns="http://www.w3.org/2000/svg"><path fill-rule="evenodd" clip-rule="evenodd" d="M5.293 7.293a1 1 0 0 1 1.414 0L10 10.586l3.293-3.293a1 1 0 0 1 1.414 1.414l-4 4a1 1 0 0 1-1.414 0l-4-4a1 1 0 0 1 0-1.414Z"/></symbol><symbol viewBox="0 0 20 20" id="chevron-left" xmlns="http://www.w3.org/2000/svg"><path fill-rule="evenodd" clip-rule="evenodd" d="M12.707 14.707a1 1 0 0 0 0-1.414L9.414 10l3.293-3.293a1 1 0 0 0-1.414-1.414l-4 4a1 1 0 0 0 0 1.414l4 4a1 1 0 0 0 1.414 0Z"/></symbol><symbol viewBox="0 0 20 20" id="chevron-right" xmlns="http://www.w3.org/2000/svg"><path fill-rule="evenodd" clip-rule="evenodd" d="M7.293 14.707a1 1 0 0 1 0-1.414L10.585 10 7.293 6.707a1 1 0 1 1 1.414-1.414l4 4a1 1 0 0 1 0 1.414l-4 4a1 1 0 0 1-1.414 0Z"/></symbol><symbol viewBox="0 0 24 24" id="fb" xmlns="http://www.w3.org/2000/svg"><path d="M13.397 20.997v-8.196h2.765l.411-3.209h-3.176V7.548c0-.926.258-1.56 1.587-1.56h1.684v-2.86A22.108 22.108 0 0 0 14.201 3c-2.444 0-4.122 1.492-4.122 4.231v2.355H7.332v3.21h2.753v8.201h3.312Z"/></symbol><symbol viewBox="0 0 24 24" id="headerBlock-icon-1" xmlns="http://www.w3.org/2000/svg"><g clip-path="url(#ia)"><path fill-rule="evenodd" clip-rule="evenodd" d="M3.323.108a.84.84 0 0 0-.241.27C3.005.532 3 1.184 3 12.002c0 11.066.003 11.468.087 11.625.26.489.894.504 1.245.031l.098-.132.012-5.786.012-5.785h4.542l.014 2.004c.013 1.995.014 2.004.12 2.176a.81.81 0 0 0 .31.27c.202.098.21.098 5.643.086 5.413-.013 5.442-.013 5.57-.11.072-.053.174-.154.227-.226.096-.129.097-.153.109-5.99L21 4.306l-.099-.175a.849.849 0 0 0-.246-.265c-.141-.086-.303-.091-3.289-.113l-3.14-.024-.033-.359c-.086-.942-.7-1.826-1.59-2.29-.643-.334-.535-.326-4.551-.327H4.457L4.426.584c-.09-.483-.7-.745-1.103-.476Zm8.131 2.095c.542.09.969.407 1.198.892l.121.258.013 3.801.013 3.801-.27-.13c-.592-.282-.51-.276-4.462-.276H4.453V2.158h3.363c1.927 0 3.481.02 3.638.045Zm8.093 7.924v4.921h-2.86c-1.572 0-2.859-.008-2.859-.017 0-.01.052-.131.115-.27.291-.638.278-.4.296-5.185l.016-4.371h5.292v4.922Zm-7.678 1.98c.334.152.623.441.779.778.097.21.122.338.123.619.001.306-.02.396-.153.666a1.542 1.542 0 0 1-.752.744c-.18.086-.32.108-.815.125l-.598.02v-3.117l.577.022c.49.02.616.04.839.143Z"/></g><defs><clipPath id="ia"><path d="M0 0h24v24H0z"/></clipPath></defs></symbol><symbol viewBox="0 0 24 24" id="headerBlock-icon-2" xmlns="http://www.w3.org/2000/svg"><path fill-rule="evenodd" clip-rule="evenodd" d="M11.23.121C9.229.54 5.265 1.938 3.509 2.847c-.979.507-1.332.98-1.472 1.978-.074.525-.025 7.866.059 8.86.212 2.512 1.275 4.634 3.298 6.581 1.451 1.397 3.586 2.708 5.7 3.501.826.31.973.31 1.795 0 2.64-.996 5.009-2.578 6.55-4.373 1.206-1.405 1.921-2.822 2.296-4.549.126-.582.142-.808.186-2.734.08-3.397.083-7.189.008-7.54-.102-.477-.365-.955-.68-1.24-.847-.76-6.051-2.718-8.59-3.23-.679-.138-.67-.138-1.427.02Zm1.714 1.882c1.707.437 5.142 1.66 6.53 2.325.602.29.667.38.71 1.004.016.235.004 2.23-.027 4.432-.046 3.26-.073 4.092-.145 4.474-.205 1.091-.743 2.321-1.449 3.313-.438.615-1.448 1.65-2.112 2.164a17.194 17.194 0 0 1-4.205 2.363l-.255.098-.574-.232c-2.001-.81-3.761-1.961-5.076-3.322-1.247-1.292-1.908-2.47-2.302-4.108l-.14-.58-.057-4.395c-.063-4.874-.069-4.77.275-5 .938-.63 6.963-2.716 7.87-2.727.114-.001.544.085.957.19Zm2.457 6.468c-.12.05-.971.86-2.223 2.109l-2.029 2.025-.898-.891c-.75-.744-.933-.898-1.105-.93a.924.924 0 0 0-1.01.475c-.104.2-.104.62-.002.814.12.227 2.523 2.593 2.7 2.66a.873.873 0 0 0 .814-.102c.135-.088 1.294-1.212 2.575-2.5 2.047-2.057 2.336-2.368 2.39-2.575a.851.851 0 0 0-.203-.849c-.28-.309-.643-.394-1.009-.236Z"/></symbol><symbol viewBox="0 0 24 24" id="headerBlock-icon-3" xmlns="http://www.w3.org/2000/svg"><path fill-rule="evenodd" clip-rule="evenodd" d="M4.563.071c-.442.123-1.07.457-1.395.744-.403.355-.793.951-.987 1.506l-.161.462-.016 8.949c-.011 6.118.003 9.075.045 9.348.172 1.117.847 2.064 1.818 2.548.784.392.354.37 7.7.372 7.405 0 6.976.022 7.773-.394.768-.4 1.401-1.197 1.683-2.117.101-.329.107-.726.107-7.765 0-7.038-.006-7.437-.107-7.763a3.685 3.685 0 0 0-.676-1.273c-.152-.19-1.09-1.155-2.085-2.143C16.394.689 16.045.4 15.37.147l-.36-.134-5.08-.01C5.777-.008 4.796.005 4.563.07Zm8.513 3.801c0 1.123.025 2.173.055 2.334.13.68.628 1.322 1.257 1.617l.333.156 2.266.018 2.266.017v6.391c0 4.172-.021 6.465-.06 6.603-.11.397-.402.752-.773.942l-.342.174H5.07l-.342-.174a1.541 1.541 0 0 1-.775-.952c-.04-.147-.054-3.173-.044-9.13l.015-8.912.18-.317a1.49 1.49 0 0 1 .927-.726c.214-.057 1.17-.075 4.161-.078l3.883-.004v2.041Zm4.041.25 1.934 1.952-1.963.015c-1.794.014-1.969.007-2.035-.083-.054-.074-.072-.574-.072-2.023 0-1.817.006-1.922.1-1.87.056.031.972.935 2.036 2.009ZM7.573 9.88c-.744.268-.85 1.186-.194 1.672.162.12.194.121 4.196.121 4.001 0 4.034 0 4.196-.12.09-.067.223-.21.297-.318.113-.164.132-.252.112-.53-.026-.376-.15-.584-.455-.764-.19-.112-.312-.116-4.064-.128-3.161-.01-3.908.002-4.088.067Zm0 3.695c-.744.268-.85 1.186-.194 1.672.162.12.194.121 4.196.121 4.001 0 4.034 0 4.196-.12.09-.067.223-.21.297-.318.113-.164.132-.252.112-.53-.026-.377-.15-.584-.455-.764-.19-.112-.312-.116-4.064-.128-3.161-.01-3.908.002-4.088.067Zm0 3.694c-.42.152-.617.436-.617.888 0 .313.142.577.423.785.158.118.221.121 2.348.121s2.19-.003 2.349-.12c.09-.067.223-.21.298-.318.112-.165.13-.252.111-.53-.026-.377-.15-.584-.455-.764-.184-.109-.313-.116-2.216-.129-1.604-.01-2.066.003-2.241.067Z"/></symbol><symbol viewBox="0 0 24 24" id="instagram" xmlns="http://www.w3.org/2000/svg"><path d="M11.999 7.377a4.624 4.624 0 1 0 0 9.248 4.624 4.624 0 0 0 0-9.248Zm0 7.627a3.004 3.004 0 1 1 0-6.008 3.004 3.004 0 0 1 0 6.008Zm4.807-6.719a1.078 1.078 0 1 0 0-2.156 1.078 1.078 0 0 0 0 2.156Z"/><path d="M20.533 6.11A4.605 4.605 0 0 0 17.9 3.48a6.607 6.607 0 0 0-2.186-.42c-.963-.042-1.268-.054-3.71-.054s-2.755 0-3.71.054a6.554 6.554 0 0 0-2.184.42 4.6 4.6 0 0 0-2.633 2.63 6.585 6.585 0 0 0-.419 2.186c-.043.962-.056 1.267-.056 3.71 0 2.442 0 2.753.056 3.71.015.748.156 1.486.419 2.187a4.61 4.61 0 0 0 2.634 2.632 6.583 6.583 0 0 0 2.185.45c.963.042 1.268.055 3.71.055s2.755 0 3.71-.055a6.616 6.616 0 0 0 2.186-.42 4.613 4.613 0 0 0 2.633-2.632c.263-.7.404-1.438.419-2.186.043-.962.056-1.267.056-3.71s0-2.753-.056-3.71a6.583 6.583 0 0 0-.421-2.217Zm-1.218 9.533a5.046 5.046 0 0 1-.311 1.688 2.987 2.987 0 0 1-1.712 1.71c-.535.2-1.1.305-1.67.312-.95.044-1.218.055-3.654.055-2.438 0-2.687 0-3.655-.055a4.961 4.961 0 0 1-1.67-.311 2.984 2.984 0 0 1-1.718-1.711 5.08 5.08 0 0 1-.311-1.67c-.043-.95-.053-1.217-.053-3.653 0-2.437 0-2.686.053-3.655a5.038 5.038 0 0 1 .311-1.687c.305-.79.93-1.41 1.719-1.712a5.01 5.01 0 0 1 1.669-.311c.95-.043 1.218-.055 3.655-.055s2.687 0 3.654.055a4.96 4.96 0 0 1 1.67.31 2.99 2.99 0 0 1 1.712 1.713 5.06 5.06 0 0 1 .311 1.669c.043.95.054 1.218.054 3.655 0 2.436 0 2.698-.043 3.654h-.011v-.001Z"/></symbol><symbol viewBox="0 0 16 16" id="telegram" xmlns="http://www.w3.org/2000/svg"><path d="m14.629 3.698-2.012 9.618c-.152.679-.548.848-1.11.528l-3.066-2.29-1.48 1.442c-.163.166-.3.305-.616.305l.22-3.165 5.683-5.204c.247-.223-.054-.347-.384-.123L4.839 9.29l-3.024-.959c-.658-.208-.67-.667.137-.986L13.78 2.727c.548-.208 1.027.124.849.971Z"/></symbol><symbol viewBox="0 0 20 20" id="viber" xmlns="http://www.w3.org/2000/svg"><path fill-rule="evenodd" clip-rule="evenodd" d="M10.14 1.073c-.46.208-.561.953-.166 1.215.143.095.21.11 1.008.232 3.635.557 5.461 2.394 6.03 6.068.039.255.071.557.071.67 0 .582.267.887.775.888.64 0 .807-.574.627-2.162-.354-3.122-2.89-5.983-5.993-6.763-.856-.216-2.04-.29-2.353-.148Zm-6.502.879C1.503 2.52.494 4.4 1.249 6.402c1.866 4.947 5.754 9.177 10.72 11.662 2.133 1.067 2.71 1.157 3.831.596 1.771-.885 2.699-2.766 1.903-3.86-.267-.367-1.755-1.535-2.807-2.204-1.243-.79-2.199-.65-3.04.445-.53.688-.817.736-1.73.287-1.625-.802-2.78-1.938-3.503-3.446-.497-1.037-.422-1.41.41-2.04 1.29-.977 1.113-2.02-.737-4.356C5.209 2.113 4.52 1.716 3.638 1.95Zm6.783 1.406c-.273.123-.403.364-.402.742 0 .394.248.617.78.702 2.541.408 3.657 1.562 3.927 4.06.07.648.25.84.763.818.552-.025.658-.176.674-.964.042-2.037-1.1-3.86-3.013-4.811-.918-.456-2.314-.736-2.73-.547Zm.538 2.327c-.41.06-.636.29-.684.7-.05.42.192.645.832.773.789.158 1.19.59 1.336 1.441.114.667.45.943.966.793.358-.104.51-.386.51-.94-.003-1.488-1.586-2.969-2.96-2.767Z"/></symbol><symbol viewBox="0 0 24 24" id="vk" xmlns="http://www.w3.org/2000/svg"><path d="M21.579 6.855c.14-.465 0-.806-.662-.806h-2.193c-.558 0-.813.295-.953.619 0 0-1.115 2.719-2.695 4.482-.51.513-.743.675-1.021.675-.139 0-.341-.162-.341-.627V6.855c0-.558-.161-.806-.626-.806H9.642c-.348 0-.558.258-.558.504 0 .528.79.65.871 2.138v3.228c0 .707-.127.836-.407.836-.743 0-2.551-2.73-3.624-5.853-.209-.607-.42-.852-.98-.852H2.752c-.627 0-.752.295-.752.619 0 .582.743 3.462 3.461 7.27 1.812 2.602 4.363 4.012 6.687 4.012 1.393 0 1.565-.313 1.565-.853v-1.966c0-.626.133-.752.574-.752.324 0 .882.164 2.183 1.417 1.486 1.486 1.732 2.153 2.567 2.153h2.192c.626 0 .939-.313.759-.931-.197-.615-.907-1.51-1.849-2.57-.512-.603-1.277-1.253-1.51-1.578-.325-.42-.231-.604 0-.976.001 0 2.672-3.761 2.95-5.04Z"/></symbol><symbol viewBox="0 0 20 20" id="wallet" xmlns="http://www.w3.org/2000/svg"><g clip-path="url(#pa)"><path fill-rule="evenodd" clip-rule="evenodd" d="M2.778.869C2.04 1.03 1.367 1.58 1.04 2.29c-.238.52-.227.127-.216 7.826l.01 7.04.105.287c.15.41.327.69.622.981a2.5 2.5 0 0 0 .98.62l.286.104h14.336l.286-.104c.41-.15.69-.327.982-.622.296-.3.473-.578.62-.98l.104-.286.01-5.36c.012-5.99.027-5.65-.265-6.257-.127-.265-.22-.391-.479-.647-.455-.45-.888-.66-1.537-.743l-.2-.026-.019-.652c-.016-.57-.03-.686-.119-.937a2.42 2.42 0 0 0-.616-.982 2.485 2.485 0 0 0-.98-.62L14.663.83 8.844.822C4.034.816 2.98.824 2.777.869ZM14.39 2.546a.847.847 0 0 1 .548.545c.035.118.058.358.058.616v.423l-5.928-.001c-5.682 0-5.934-.004-6.087-.073a.862.862 0 0 1-.447-.555.828.828 0 0 1 .545-.952c.271-.083 11.034-.087 11.311-.003ZM9.918 5.847c6.549.02 7.02.026 7.135.089.175.096.35.324.4.52.026.105.043.648.043 1.42v1.25L15.2 9.14c-2.555.016-2.484.009-3.037.294-.375.193-.89.71-1.067 1.07-.497 1.019-.318 2.146.465 2.921.3.297.578.473.98.62l.286.104 2.334.011 2.334.012v1.262c0 1.43-.016 1.538-.261 1.789-.278.285.224.266-7.24.266-7.462 0-6.96.019-7.238-.266-.277-.283-.261.08-.261-6.026V5.7l.205.064c.185.058.878.066 7.217.084Zm7.578 5.822v.82h-2.103c-2.357 0-2.365 0-2.632-.261a.795.795 0 0 1-.06-1.086c.247-.3.17-.292 2.617-.293h2.178v.82Z"/></g><defs><clipPath id="pa"><path d="M0 0h20v20H0z"/></clipPath></defs></symbol><symbol viewBox="0 0 20 20" id="whatsapp" xmlns="http://www.w3.org/2000/svg"><g clip-path="url(#qa)"><circle cx="10.417" cy="9.583" r="7.083"/><path d="M10.181 0C4.76 0 .363 4.362.363 9.742c0 1.841.515 3.563 1.409 5.031L0 20l5.436-1.727a9.838 9.838 0 0 0 4.745 1.212c5.423 0 9.819-4.362 9.819-9.742C20 4.361 15.604 0 10.181 0Zm4.883 13.442c-.231.573-1.276 1.096-1.737 1.12-.46.024-.474.357-2.984-.734-2.51-1.09-4.02-3.743-4.14-3.914-.118-.17-.971-1.386-.925-2.61.046-1.223.716-1.8.955-2.04a.961.961 0 0 1 .68-.287c.198-.003.326-.006.472 0 .146.005.366-.031.556.474.19.506.645 1.748.703 1.875.058.127.094.273.004.436-.09.163-.135.265-.266.406-.13.14-.275.314-.392.422-.13.118-.267.248-.13.503.137.254.61 1.087 1.33 1.774.925.882 1.723 1.175 1.968 1.308.247.134.394.12.546-.041.152-.16.654-.703.83-.945.177-.243.342-.195.57-.104.226.091 1.435.739 1.681.873.246.133.41.202.47.308.058.106.04.604-.191 1.176Z"/></g><defs><clipPath id="qa"><path d="M0 0h20v20H0z"/></clipPath></defs></symbol></svg>