<?xml version="1.0" encoding="utf-8"?><svg xmlns="http://www.w3.org/2000/svg" xmlns:xlink="http://www.w3.org/1999/xlink"><symbol fill="none" viewBox="0 0 36 36" id="category-icon-1" xmlns="http://www.w3.org/2000/svg"><path fill-rule="evenodd" clip-rule="evenodd" d="m1.84 4.1-.153.163v27.494l.163.153c.156.146.223.153 1.535.153 1.343 0 1.375-.004 1.525-.163.135-.144.152-.241.152-.844v-.68h11.252v.69c0 1.022-.044.997 1.697.997 1.343 0 1.375-.004 1.525-.163.135-.144.152-.241.152-.844v-.68h11.25v.69c0 1.022-.043.997 1.698.997 1.343 0 1.375-.004 1.525-.163l.153-.163V4.243l-.163-.153c-.156-.146-.223-.152-1.535-.152-1.343 0-1.375.003-1.525.162-.135.144-.152.242-.152.844v.681h-11.25v-.69c0-1.023.043-.997-1.698-.997-1.343 0-1.375.003-1.525.162-.135.144-.152.242-.152.844v.681H5.061v-.69c0-1.023.044-.997-1.697-.997-1.343 0-1.375.003-1.525.162ZM3.938 18v12.938H2.812V5.063h1.126V18Zm14.624 0v12.938h-1.125V5.063h1.126V18Zm14.625 0v12.938h-1.125V5.063h1.126V18ZM16.314 7.313v.562H5.061V6.75h11.253v.563Zm14.625 0v.562h-11.25V6.75h11.25v.563ZM7.03 18v9H5.063V9H7.03v9Zm3.094 0v9H8.156V9h1.969v9Zm3.094 0v9H11.25V9h1.969v9Zm3.094 0v9h-1.968V9h1.969v9Zm5.343 0v9h-1.968V9h1.97v9Zm3.094 0v9h-1.968V9h1.969v9Zm3.094 0v9h-1.968V9h1.969v9Zm3.093 0v9H28.97V9h1.968v9ZM16.313 28.688v.562H5.064v-1.125h11.247v.563Zm14.625 0v.562h-11.25v-1.125h11.25v.563Z" fill="#222"/></symbol><symbol fill="none" viewBox="0 0 36 36" id="category-icon-2" xmlns="http://www.w3.org/2000/svg"><path fill-rule="evenodd" clip-rule="evenodd" d="M13.468 2.455c-2.352 1.348-4.32 2.51-4.375 2.58-.153.203-.123.553.068.775.17.198.17.198 1.195.22l1.026.023V29.93l-.439.04c-.358.032-.467.073-.598.224-.148.173-.159.249-.159 1.157v.972l-.685.03c-.744.032-.949.11-1.075.414-.049.119-.068.667-.054 1.526.021 1.308.026 1.345.192 1.522l.17.181h18.514l.17-.181c.167-.177.171-.214.193-1.522.014-.859-.006-1.407-.055-1.526-.126-.303-.33-.383-1.075-.414l-.685-.03v-.972c0-.908-.01-.984-.16-1.157-.13-.151-.238-.192-.597-.225l-.438-.04V6.054l1.025-.022c1.025-.023 1.026-.023 1.196-.22.208-.243.223-.598.033-.802-.075-.08-2.052-1.24-4.394-2.58C19.187.56 18.151-.002 17.974 0c-.168.003-1.368.657-4.506 2.455Zm7.61.62 2.919 1.667-3.003.018c-1.652.01-4.354.01-6.006 0l-3.003-.018 2.986-1.705c1.666-.952 3.03-1.688 3.087-1.667.055.021 1.415.788 3.02 1.705Zm-2.524 4.128v1.16h-5.907v-2.32h5.907v1.16Zm4.781 0v1.16h-3.516v-2.32h3.516v1.16Zm-7.172 3.586v1.16h-3.515V9.63h3.515v1.16Zm7.172 0v1.16h-5.906V9.63h5.906v1.16Zm-4.781 3.621v1.195h-5.907v-2.39h5.907v1.195Zm4.781 0v1.195h-3.516v-2.39h3.516v1.195Zm-7.172 3.586v1.195h-3.515v-2.39h3.515v1.195Zm7.172 0v1.195h-5.906v-2.39h5.906v1.195Zm-4.781 3.586v1.195h-5.907v-2.39h5.907v1.195Zm4.781 0v1.195h-3.516v-2.39h3.516v1.195Zm-7.172 3.621v1.16h-3.515v-2.32h3.515v1.16Zm7.172 0v1.16h-5.906v-2.32h5.906v1.16Zm-4.781 3.586v1.16h-5.907v-2.32h5.907v1.16Zm4.781 0v1.16h-3.516v-2.32h3.516v1.16Zm1.266 2.988v.563H11.38v-1.125H24.6v.562Zm1.757 2.426v.598H9.624v-1.196h16.734v.598Z" fill="#222"/></symbol><symbol fill="none" viewBox="0 0 36 36" id="category-icon-3" xmlns="http://www.w3.org/2000/svg"><path fill-rule="evenodd" clip-rule="evenodd" d="m.715 6.354-.152.162V29.51l.162.153c.16.15.208.153 2.097.153 2.458 0 2.24.153 2.24-1.569v-1.244h1.126v.691c0 1.023-.044.997 1.697.997 1.343 0 1.375-.003 1.525-.163.135-.144.152-.241.152-.843v-.682h1.126v.691c0 1.023-.044.997 1.697.997 1.343 0 1.375-.003 1.525-.163.135-.144.152-.241.152-.843v-.682h1.126v.691c0 1.023-.044.997 1.697.997 1.343 0 1.375-.003 1.525-.163.135-.144.152-.241.152-.843v-.682h1.126v.691c0 1.023-.044.997 1.697.997 1.343 0 1.375-.003 1.525-.163.135-.144.152-.241.152-.843v-.682h1.126v.691c0 1.023-.044.997 1.697.997 1.343 0 1.375-.003 1.525-.163.152-.162.152-.166.152-3.656 0-3.335.006-3.494.129-3.494.07 0 .197-.073.281-.162.135-.144.153-.242.153-.844v-.681h.69c1.023 0 .997.044.997-1.697 0-1.343-.003-1.375-.162-1.525-.144-.135-.241-.153-.844-.153h-.681v-.691c0-.631-.014-.704-.163-.844-.09-.084-.216-.153-.281-.153-.11 0-.119-.264-.119-3.503V7.622l-.162-.153c-.156-.146-.223-.153-1.535-.153-1.343 0-1.375.003-1.525.163-.135.144-.152.24-.152.843v.681h-1.126v-.69c0-1.023.044-.997-1.697-.997-1.343 0-1.375.003-1.525.163-.135.144-.152.24-.152.843v.681h-1.126v-.69c0-1.023.044-.997-1.697-.997-1.343 0-1.375.003-1.525.163-.135.144-.152.24-.152.843v.681h-1.126v-.69c0-1.023.044-.997-1.697-.997-1.343 0-1.375.003-1.525.163-.135.144-.152.24-.152.843v.681H9.562v-.69c0-1.023.044-.997-1.697-.997-1.343 0-1.375.003-1.525.163-.135.144-.152.24-.152.843v.681H5.062V7.75c0-1.71.22-1.56-2.26-1.56-1.93 0-1.934.001-2.087.164Zm30.375 0-.152.162V29.51l.162.153c.16.15.208.153 2.097.153 1.931 0 1.935 0 2.088-.163l.153-.163V6.497l-.163-.153c-.16-.15-.208-.153-2.097-.153-1.931 0-1.935 0-2.088.163ZM3.938 18.004V28.69h-2.25V7.316h2.249v10.687Zm30.375 0V28.69h-2.25V7.316h2.25v10.687Zm-25.876 0v9.562H7.313V8.44h1.126v9.562Zm4.5 0v9.562h-1.125V8.44h1.126v9.562Zm4.5 0v9.562h-1.125V8.44h1.126v9.562Zm4.5 0v9.562h-1.125V8.44h1.126v9.562Zm4.5-6.099v3.465l-.524.438c-.289.24-.542.438-.563.438-.02 0-.038-1.756-.038-3.903V8.441h1.126v3.464Zm-20.25 6.098v7.875H5.063v-15.75h1.126v7.875Zm4.5 0v7.875H9.563v-15.75h1.126v7.875Zm4.5 0v7.875h-1.125v-15.75h1.126v7.875Zm4.5 0v7.875h-1.125v-15.75h1.126v7.875Zm4.5-4.324v3.551l-.28.254c-.234.211-.282.3-.282.52 0 .22.048.307.281.518l.282.255v7.101h-1.126v-15.75h1.126v3.551Zm2.97 3.604c.135.143.214.158.84.158h.69v1.125h-.69c-.626 0-.705.015-.84.158-.098.105-.155.272-.17.495l-.022.337-.897-.747c-.493-.41-.896-.773-.896-.806 0-.032.403-.395.896-.806l.897-.746.022.337c.015.223.072.39.17.495Zm-1.244 2.916.524.438v6.929h-1.125v-3.902c0-2.147.017-3.903.038-3.903.021 0 .274.197.563.438Z" fill="#222"/></symbol><symbol fill="none" viewBox="0 0 36 36" id="category-icon-4" xmlns="http://www.w3.org/2000/svg"><path fill-rule="evenodd" clip-rule="evenodd" d="M9.166 5.221C7.983 6.406 7.883 6.525 7.883 6.756c0 .26.198.518.435.567.09.019-.784 1.312-3.53 5.228C.833 18.194.917 18.053 1.297 18.41c.144.135.241.152.844.152h.68v9h-.69c-1.053 0-.997-.128-.997 2.26 0 1.931 0 1.935.163 2.088l.163.152h10.924v-1.125h-.562v-1.125h-1.125v-1.125h1.686v-1.125H6.196v-9h9v9h-.691c-1.053 0-.997-.128-.997 2.26 0 1.931 0 1.935.163 2.088l.163.152h20.181l.153-.162c.15-.16.153-.208.153-2.097 0-1.931 0-1.935-.163-2.088-.144-.135-.241-.152-.844-.152h-.68v-9h.971c.926 0 .98-.008 1.126-.163.35-.374.433-.236-3.503-5.85-2.745-3.915-3.619-5.208-3.53-5.227.238-.05.435-.307.435-.568 0-.234-.096-.348-1.284-1.535l-1.283-1.282H10.448L9.166 5.22Zm16.471.404.56.563H13.189l-.56-.563-.559-.563h13.008l.56.563Zm-14.484.14.417.423H9.821l.418-.422c.23-.232.435-.422.457-.422.022 0 .227.19.457.422Zm3.88 6.593 3.527 5.044-3.932.018c-2.163.01-5.702.01-7.864 0l-3.932-.018 3.528-5.044 3.527-5.043h1.618l3.527 5.043Zm14.155-.671c1.682 2.404 3.274 4.682 3.537 5.061l.48.69-6.597-.002h-6.596l-3.058-4.373a4284.404 4284.404 0 0 1-3.538-5.061l-.479-.69 6.596.002h6.596l3.06 4.373ZM5.071 23.063v4.5H3.946v-9H5.07v4.5Zm12.375 0v4.5H16.32v-9h1.125v4.5Zm5.062 0v4.5H18.57v-9h3.939v4.5Zm2.25 0v4.5h-1.125v-9h1.125v4.5Zm4.5 0v4.5h-3.375v-9h3.375v4.5Zm2.25 0v4.5h-1.125v-9h1.125v4.5Zm-27 6.187v.563h1.125v-1.126h1.125v2.25h-2.25v-1.125H3.383v1.126H2.258v-2.25h2.25v.562Zm5.063 0v.563h1.125v1.125H9.57v-1.126H8.446v1.126h-.563v-2.25h1.688v.562Zm7.312 0v.563h1.125v-1.126h1.125v2.25h-2.25v-1.125h-1.125v1.126h-1.125v-2.25h2.25v.562Zm5.063 0v.563h1.125v-1.126h1.125v1.126h1.125v-1.126h1.125v1.126h1.125v-1.126h1.125v1.126h1.125v-1.126h1.125v1.126h1.125v-1.126h1.125v2.25h-2.25v-1.125H29.82v1.126h-1.125v-1.126H27.57v1.126h-1.125v-1.126H25.32v1.126h-1.125v-1.126H23.07v1.126h-1.125v-1.126H20.82v1.126h-.563v-2.25h1.688v.562Z" fill="#222"/></symbol><symbol fill="none" viewBox="0 0 20 20" id="telegram" xmlns="http://www.w3.org/2000/svg"><g clip-path="url(#ea)"><path d="M1.375 9.285c5.369-2.388 8.948-3.962 10.74-4.723 5.114-2.172 6.177-2.55 6.87-2.562.152-.002.493.036.713.219.187.154.238.363.262.51.025.145.055.479.031.74-.277 2.973-1.476 10.188-2.086 13.518-.259 1.409-.767 1.881-1.259 1.928-1.07.1-1.882-.722-2.917-1.415-1.621-1.085-2.537-1.76-4.11-2.819-1.818-1.223-.64-1.896.396-2.995.272-.287 4.984-4.663 5.075-5.06.011-.05.022-.235-.086-.333-.107-.097-.266-.064-.381-.037-.163.037-2.752 1.785-7.768 5.242-.735.515-1.4.766-1.997.753-.658-.014-1.923-.38-2.863-.692-1.153-.382-2.07-.585-1.99-1.235.041-.338.498-.685 1.37-1.039Z" fill="#009FE3"/></g><defs><clipPath id="ea"><path fill="#fff" d="M0 0h20v20H0z"/></clipPath></defs></symbol><symbol fill="none" viewBox="0 0 20 20" id="viber" xmlns="http://www.w3.org/2000/svg"><path fill-rule="evenodd" clip-rule="evenodd" d="M10.14 1.073c-.46.208-.561.953-.166 1.215.143.095.21.11 1.008.232 3.635.557 5.461 2.394 6.03 6.068.039.255.071.557.071.67 0 .582.267.887.775.888.64 0 .807-.574.627-2.162-.354-3.122-2.89-5.983-5.993-6.763-.856-.216-2.04-.29-2.353-.148Zm-6.502.879C1.503 2.52.494 4.4 1.249 6.402c1.866 4.947 5.754 9.177 10.72 11.662 2.133 1.067 2.71 1.157 3.831.596 1.771-.885 2.699-2.766 1.903-3.86-.267-.367-1.755-1.535-2.807-2.204-1.243-.79-2.199-.65-3.04.445-.53.688-.817.736-1.73.287-1.625-.802-2.78-1.938-3.503-3.446-.497-1.037-.422-1.41.41-2.04 1.29-.977 1.113-2.02-.737-4.356C5.209 2.113 4.52 1.716 3.638 1.95Zm6.783 1.406c-.273.123-.403.364-.402.742 0 .394.248.617.78.702 2.541.408 3.657 1.562 3.927 4.06.07.648.25.84.763.818.552-.025.658-.176.674-.964.042-2.037-1.1-3.86-3.013-4.811-.918-.456-2.314-.736-2.73-.547Zm.538 2.327c-.41.06-.636.29-.684.7-.05.42.192.645.832.773.789.158 1.19.59 1.336 1.441.114.667.45.943.966.793.358-.104.51-.386.51-.94-.003-1.488-1.586-2.969-2.96-2.767Z" fill="#7F40BD"/></symbol><symbol fill="none" viewBox="0 0 20 20" id="whatsapp" xmlns="http://www.w3.org/2000/svg"><g clip-path="url(#ga)"><circle cx="10.417" cy="9.583" r="7.083" fill="#fff"/><path d="M10.181 0C4.76 0 .363 4.362.363 9.742c0 1.841.515 3.563 1.409 5.031L0 20l5.436-1.727a9.838 9.838 0 0 0 4.745 1.212c5.423 0 9.819-4.362 9.819-9.742C20 4.361 15.604 0 10.181 0Zm4.883 13.442c-.231.573-1.276 1.096-1.737 1.12-.46.024-.474.357-2.984-.734-2.51-1.09-4.02-3.743-4.14-3.914-.118-.17-.971-1.386-.925-2.61.046-1.223.716-1.8.955-2.04a.961.961 0 0 1 .68-.287c.198-.003.326-.006.472 0 .146.005.366-.031.556.474.19.506.645 1.748.703 1.875.058.127.094.273.004.436-.09.163-.135.265-.266.406-.13.14-.275.314-.392.422-.13.118-.267.248-.13.503.137.254.61 1.087 1.33 1.774.925.882 1.723 1.175 1.968 1.308.247.134.394.12.546-.041.152-.16.654-.703.83-.945.177-.243.342-.195.57-.104.226.091 1.435.739 1.681.873.246.133.41.202.47.308.058.106.04.604-.191 1.176Z" fill="#49CB5B"/></g><defs><clipPath id="ga"><path fill="#fff" d="M0 0h20v20H0z"/></clipPath></defs></symbol></svg>