<svg width="24" height="24" viewBox="0 0 24 24" fill="none" xmlns="http://www.w3.org/2000/svg">
<g id="Frame 103" clip-path="url(#clip0_189_904)">
<g id="information (2) 1 (Traced)">
<path id="Layer 1" fill-rule="evenodd" clip-rule="evenodd" d="M10.8238 0.0220259C3.44817 0.815057 -1.45725 7.88142 0.391173 15.0504C2.03358 21.4203 8.64544 25.278 15.078 23.6195C21.4479 21.9771 25.3057 15.3652 23.6471 8.93264C22.4753 4.3882 18.6848 0.939417 13.967 0.125292C13.4176 0.0304634 11.3707 -0.0367553 10.8238 0.0220259ZM12.9165 2.2432C20.9438 3.04635 24.6673 12.6276 19.2562 18.5563C13.5294 24.8307 3.11803 21.3568 2.27081 12.8889C1.67077 6.89137 6.91899 1.64315 12.9165 2.2432ZM11.6785 5.10229C10.2972 5.44917 10.1604 7.41562 11.4832 7.91053C12.6935 8.36339 13.8369 7.20393 13.3811 5.98589C13.143 5.34946 12.3445 4.93504 11.6785 5.10229ZM11.5084 10.2869C11.2079 10.4367 11.0126 10.6896 10.9405 11.0223C10.8394 11.4887 10.898 18.0719 11.0049 18.2728C11.4606 19.1283 12.5776 19.1283 13.0333 18.2728C13.1403 18.0719 13.1988 11.4887 13.0978 11.0223C12.9873 10.5127 12.5487 10.1634 12.0191 10.1634C11.8291 10.1634 11.6876 10.1976 11.5084 10.2869Z" fill="#08A76D"/>
<path id="Layer 2" fill-rule="evenodd" clip-rule="evenodd" d="M10.8238 0.0220259C3.44817 0.815057 -1.45725 7.88142 0.391173 15.0504C2.03358 21.4203 8.64544 25.278 15.078 23.6195C21.4479 21.9771 25.3057 15.3652 23.6471 8.93264C22.4753 4.3882 18.6848 0.939417 13.967 0.125292C13.4176 0.0304634 11.3707 -0.0367553 10.8238 0.0220259ZM12.9165 2.2432C20.9438 3.04635 24.6673 12.6276 19.2562 18.5563C13.5294 24.8307 3.11803 21.3568 2.27081 12.8889C1.67077 6.89137 6.91899 1.64315 12.9165 2.2432ZM11.6785 5.10229C10.2972 5.44917 10.1604 7.41562 11.4832 7.91053C12.6935 8.36339 13.8369 7.20393 13.3811 5.98589C13.143 5.34946 12.3445 4.93504 11.6785 5.10229ZM11.5084 10.2869C11.2079 10.4367 11.0126 10.6896 10.9405 11.0223C10.8394 11.4887 10.898 18.0719 11.0049 18.2728C11.4606 19.1283 12.5776 19.1283 13.0333 18.2728C13.1403 18.0719 13.1988 11.4887 13.0978 11.0223C12.9873 10.5127 12.5487 10.1634 12.0191 10.1634C11.8291 10.1634 11.6876 10.1976 11.5084 10.2869Z" fill="#08A76D"/>
</g>
</g>
<defs>
<clipPath id="clip0_189_904">
<rect width="24" height="24" fill="white"/>
</clipPath>
</defs>
</svg>
