<svg width="36" height="36" viewBox="0 0 36 36" fill="none" xmlns="http://www.w3.org/2000/svg">
<g id="gate">
<g id="Group 335">
<path id="fence (2) 1 (Traced)" fill-rule="evenodd" clip-rule="evenodd" d="M0.715359 6.35363L0.5625 6.5164V18.0133V29.5101L0.725203 29.6631C0.88418 29.8123 0.933047 29.8159 2.82234 29.8159C5.2804 29.8159 5.0625 29.9686 5.0625 28.247V27.0034H5.625H6.1875V27.6943C6.1875 28.7165 6.14391 28.6909 7.88484 28.6909C9.22795 28.6909 9.25995 28.6875 9.40964 28.5282C9.54485 28.3842 9.5625 28.2869 9.5625 27.6845V27.0034H10.125H10.6875V27.6943C10.6875 28.7165 10.6439 28.6909 12.3848 28.6909C13.728 28.6909 13.7599 28.6875 13.9096 28.5282C14.0449 28.3842 14.0625 28.2869 14.0625 27.6845V27.0034H14.625H15.1875V27.6943C15.1875 28.7165 15.1439 28.6909 16.8848 28.6909C18.228 28.6909 18.2599 28.6875 18.4096 28.5282C18.5449 28.3842 18.5625 28.2869 18.5625 27.6845V27.0034H19.125H19.6875V27.6943C19.6875 28.7165 19.6439 28.6909 21.3848 28.6909C22.728 28.6909 22.7599 28.6875 22.9096 28.5282C23.0449 28.3842 23.0625 28.2869 23.0625 27.6845V27.0034H23.625H24.1875V27.6943C24.1875 28.7165 24.1439 28.6909 25.8848 28.6909C27.228 28.6909 27.2599 28.6875 27.4096 28.5282C27.5624 28.3656 27.5625 28.3621 27.5625 24.872C27.5625 21.5365 27.5683 21.3784 27.6909 21.3784C27.7615 21.3784 27.888 21.3052 27.9721 21.2157C28.1074 21.0717 28.125 20.9744 28.125 20.372V19.6909H28.8159C29.8381 19.6909 29.8125 19.7345 29.8125 17.9936C29.8125 16.6505 29.8091 16.6185 29.6498 16.4688C29.5058 16.3336 29.4085 16.3159 28.806 16.3159H28.125V15.625C28.125 14.9938 28.1109 14.921 27.9623 14.7813C27.8728 14.6972 27.7462 14.6284 27.681 14.6284C27.5714 14.6284 27.5625 14.3637 27.5625 11.125V7.62171L27.3998 7.46878C27.2442 7.3226 27.1769 7.31592 25.8652 7.31592C24.522 7.31592 24.4901 7.31937 24.3404 7.47863C24.2051 7.62263 24.1875 7.71994 24.1875 8.32238V9.00342H23.625H23.0625V8.31253C23.0625 7.29033 23.1061 7.31592 21.3652 7.31592C20.022 7.31592 19.9901 7.31937 19.8404 7.47863C19.7051 7.62263 19.6875 7.71994 19.6875 8.32238V9.00342H19.125H18.5625V8.31253C18.5625 7.29033 18.6061 7.31592 16.8652 7.31592C15.522 7.31592 15.4901 7.31937 15.3404 7.47863C15.2051 7.62263 15.1875 7.71994 15.1875 8.32238V9.00342H14.625H14.0625V8.31253C14.0625 7.29033 14.1061 7.31592 12.3652 7.31592C11.022 7.31592 10.9901 7.31937 10.8404 7.47863C10.7051 7.62263 10.6875 7.71994 10.6875 8.32238V9.00342H10.125H9.5625V8.31253C9.5625 7.29033 9.60609 7.31592 7.86516 7.31592C6.52205 7.31592 6.49006 7.31937 6.34036 7.47863C6.20515 7.62263 6.1875 7.71994 6.1875 8.32238V9.00342H5.625H5.0625V7.75003C5.0625 6.03954 5.28195 6.19092 2.80266 6.19092C0.871594 6.19092 0.868008 6.19121 0.715359 6.35363ZM31.0904 6.35363L30.9375 6.5164V18.0133V29.5101L31.1002 29.6631C31.2592 29.8123 31.308 29.8159 33.1973 29.8159C35.1284 29.8159 35.132 29.8156 35.2846 29.6532L35.4375 29.4904V17.9936V6.49671L35.2748 6.34378C35.1158 6.19451 35.067 6.19092 33.1777 6.19092C31.2466 6.19092 31.243 6.19121 31.0904 6.35363ZM3.9375 18.0034V28.6909H2.8125H1.6875V18.0034V7.31592H2.8125H3.9375V18.0034ZM34.3125 18.0034V28.6909H33.1875H32.0625V18.0034V7.31592H33.1875H34.3125V18.0034ZM8.4375 18.0034V27.5659H7.875H7.3125V18.0034V8.44092H7.875H8.4375V18.0034ZM12.9375 18.0034V27.5659H12.375H11.8125V18.0034V8.44092H12.375H12.9375V18.0034ZM17.4375 18.0034V27.5659H16.875H16.3125V18.0034V8.44092H16.875H17.4375V18.0034ZM21.9375 18.0034V27.5659H21.375H20.8125V18.0034V8.44092H21.375H21.9375V18.0034ZM26.4375 11.9054V15.3699L25.9128 15.8077C25.6242 16.0486 25.3711 16.2456 25.3503 16.2456C25.3295 16.2456 25.3125 14.4896 25.3125 12.3433V8.44092H25.875H26.4375V11.9054ZM6.1875 18.0034V25.8784H5.625H5.0625V18.0034V10.1284H5.625H6.1875V18.0034ZM10.6875 18.0034V25.8784H10.125H9.5625V18.0034V10.1284H10.125H10.6875V18.0034ZM15.1875 18.0034V25.8784H14.625H14.0625V18.0034V10.1284H14.625H15.1875V18.0034ZM19.6875 18.0034V25.8784H19.125H18.5625V18.0034V10.1284H19.125H19.6875V18.0034ZM24.1875 13.6794V17.2303L23.9062 17.4844C23.6729 17.6953 23.625 17.7836 23.625 18.0034C23.625 18.2232 23.6729 18.3115 23.9062 18.5224L24.1875 18.7765V22.3274V25.8784H23.625H23.0625V18.0034V10.1284H23.625H24.1875V13.6794ZM27.1574 17.2827C27.2917 17.4259 27.371 17.4409 27.9966 17.4409H28.6875V18.0034V18.5659H27.9966C27.371 18.5659 27.2917 18.5809 27.1574 18.7241C27.059 18.829 27.0015 18.996 26.9869 19.2193L26.9648 19.5561L26.0684 18.8094C25.5753 18.3987 25.1719 18.036 25.1719 18.0034C25.1719 17.9709 25.5753 17.6081 26.0684 17.1974L26.9648 16.4507L26.9869 16.7876C27.0015 17.0109 27.059 17.1779 27.1574 17.2827ZM25.9128 20.1991L26.4375 20.637V24.1015V27.5659H25.875H25.3125V23.6636C25.3125 21.5173 25.3295 19.7612 25.3503 19.7612C25.3711 19.7612 25.6242 19.9583 25.9128 20.1991Z" fill="#222222"/>
</g>
</g>
</svg>
