<svg width="36" height="36" viewBox="0 0 36 36" fill="none" xmlns="http://www.w3.org/2000/svg">
<g id="caNOPY">
<g id="Group 337">
<path id="hut 1 (Traced)" fill-rule="evenodd" clip-rule="evenodd" d="M9.16587 5.22141C7.98258 6.40596 7.88337 6.52472 7.88337 6.75605C7.88337 7.01606 8.08115 7.27383 8.31839 7.32305C8.40762 7.34154 7.53398 8.63543 4.78863 12.5508C0.831654 18.1941 0.916029 18.0526 1.29607 18.4096C1.44007 18.5449 1.53738 18.5625 2.13982 18.5625H2.82087V23.0625V27.5625H2.12997C1.07669 27.5625 1.13337 27.434 1.13337 29.8223C1.13337 31.7534 1.13365 31.757 1.29607 31.9096L1.45884 32.0625H6.92107H12.3834V31.5V30.9375H12.1021H11.8209V30.375V29.8125H11.2584H10.6959V29.25V28.6875H11.5396H12.3834V28.125V27.5625H9.28962H6.19587V23.0625V18.5625H10.6959H15.1959V23.0625V27.5625H14.505C13.4517 27.5625 13.5084 27.434 13.5084 29.8223C13.5084 31.7534 13.5086 31.757 13.6711 31.9096L13.8338 32.0625H23.9245H34.0151L34.168 31.8998C34.3173 31.7408 34.3209 31.692 34.3209 29.8027C34.3209 27.8716 34.3206 27.868 34.1582 27.7154C34.0142 27.5801 33.9168 27.5625 33.3144 27.5625H32.6334V23.0625V18.5625H33.6055C34.5307 18.5625 34.585 18.5546 34.7305 18.3998C35.0814 18.0262 35.1636 18.1635 31.2281 12.5508C28.4827 8.63543 27.6091 7.34154 27.6983 7.32305C27.9362 7.27376 28.1334 7.01606 28.1334 6.75464C28.1334 6.52134 28.0373 6.40652 26.8495 5.22L25.5656 3.9375H18.007H10.4484L9.16587 5.22141ZM25.6373 5.625L26.1965 6.1875H19.6926H13.1887L12.6295 5.625L12.0703 5.0625H18.5742H25.0781L25.6373 5.625ZM11.1529 5.76562L11.5703 6.1875H10.6959H9.82139L10.2388 5.76562C10.4685 5.53359 10.6741 5.34375 10.6959 5.34375C10.7176 5.34375 10.9233 5.53359 11.1529 5.76562ZM15.0321 12.3585L18.5598 17.4023L14.6278 17.4205C12.4653 17.4305 8.92645 17.4305 6.76392 17.4205L2.8319 17.4023L6.35962 12.3585L9.88727 7.31482H10.6959H11.5045L15.0321 12.3585ZM29.1881 11.6868C30.8703 14.0914 32.4622 16.369 32.7255 16.7482L33.2044 17.4375L26.6083 17.4364L20.0123 17.4353L16.9537 13.0632C15.2715 10.6586 13.6796 8.38097 13.4163 8.00184L12.9374 7.3125L19.5334 7.31362L26.1295 7.31475L29.1881 11.6868ZM5.07086 23.0625V27.5625H4.50836H3.94586V23.0625V18.5625H4.50836H5.07086V23.0625ZM17.4459 23.0625V27.5625H16.8834H16.3209V23.0625V18.5625H16.8834H17.4459V23.0625ZM22.5084 23.0625V27.5625H20.5396H18.5709V23.0625V18.5625H20.5396H22.5084V23.0625ZM24.7584 23.0625V27.5625H24.1959H23.6334V23.0625V18.5625H24.1959H24.7584V23.0625ZM29.2584 23.0625V27.5625H27.5709H25.8834V23.0625V18.5625H27.5709H29.2584V23.0625ZM31.5084 23.0625V27.5625H30.9459H30.3834V23.0625V18.5625H30.9459H31.5084V23.0625ZM4.50836 29.25V29.8125H5.07086H5.63337V29.25V28.6875H6.19587H6.75837V29.8125V30.9375H5.63337H4.50836V30.375V29.8125H3.94586H3.38336V30.375V30.9375H2.82087H2.25837V29.8125V28.6875H3.38336H4.50836V29.25ZM9.57087 29.25V29.8125H10.1334H10.6959V30.375V30.9375H10.1334H9.57087V30.375V29.8125H9.00837H8.44587V30.375V30.9375H8.16462H7.88337V29.8125V28.6875H8.72712H9.57087V29.25ZM16.8834 29.25V29.8125H17.4459H18.0084V29.25V28.6875H18.5709H19.1334V29.8125V30.9375H18.0084H16.8834V30.375V29.8125H16.3209H15.7584V30.375V30.9375H15.1959H14.6334V29.8125V28.6875H15.7584H16.8834V29.25ZM21.9459 29.25V29.8125H22.5084H23.0709V29.25V28.6875H23.6334H24.1959V29.25V29.8125H24.7584H25.3209V29.25V28.6875H25.8834H26.4459V29.25V29.8125H27.0084H27.5709V29.25V28.6875H28.1334H28.6959V29.25V29.8125H29.2584H29.8209V29.25V28.6875H30.3834H30.9459V29.25V29.8125H31.5084H32.0709V29.25V28.6875H32.6334H33.1959V29.8125V30.9375H32.0709H30.9459V30.375V29.8125H30.3834H29.8209V30.375V30.9375H29.2584H28.6959V30.375V29.8125H28.1334H27.5709V30.375V30.9375H27.0084H26.4459V30.375V29.8125H25.8834H25.3209V30.375V30.9375H24.7584H24.1959V30.375V29.8125H23.6334H23.0709V30.375V30.9375H22.5084H21.9459V30.375V29.8125H21.3834H20.8209V30.375V30.9375H20.5396H20.2584V29.8125V28.6875H21.1021H21.9459V29.25Z" fill="#222222"/>
</g>
</g>
</svg>
