<svg width="36" height="36" viewBox="0 0 36 36" fill="none" xmlns="http://www.w3.org/2000/svg">
<g id="column">
<g id="Group 336">
<path id="column 1 (Traced)" fill-rule="evenodd" clip-rule="evenodd" d="M13.4681 2.45511C11.1158 3.80315 9.1471 4.96415 9.09338 5.03502C8.93954 5.23808 8.96991 5.58838 9.16074 5.81043C9.33012 6.00758 9.33118 6.00772 10.3561 6.0305L11.3818 6.05329V17.9914V29.9296L10.9432 29.9694C10.5845 30.0019 10.4756 30.0429 10.3455 30.194C10.197 30.3667 10.1865 30.4428 10.1865 31.3511V32.3234L9.50098 32.3527C8.75736 32.3845 8.55211 32.4636 8.42639 32.7672C8.37725 32.8859 8.35756 33.4344 8.37162 34.293C8.393 35.6006 8.39771 35.6379 8.564 35.8147L8.7345 35.996H17.9912H27.2479L27.4184 35.8147C27.5847 35.6379 27.5894 35.6006 27.6108 34.293C27.6249 33.4344 27.6052 32.8859 27.556 32.7672C27.4303 32.4636 27.2251 32.3845 26.4814 32.3527L25.7959 32.3234V31.3511C25.7959 30.4428 25.7854 30.3667 25.6369 30.194C25.5068 30.0429 25.3979 30.0019 25.0393 29.9694L24.6006 29.9296V17.9914V6.05329L25.6264 6.0305C26.6513 6.00772 26.6523 6.00758 26.8217 5.81043C27.0298 5.56827 27.0447 5.2127 26.8551 5.00922C26.7803 4.92892 24.8029 3.76806 22.4611 2.42959C19.187 0.558294 18.1503 -0.00308105 17.9741 1.27019e-05C17.8061 0.00296583 16.6061 0.656731 13.4681 2.45511ZM21.0778 3.0752L23.9965 4.7421L20.9938 4.76045C19.3424 4.7705 16.6399 4.7705 14.9882 4.76045L11.9852 4.7421L14.9706 3.03695C16.6365 2.08541 18.0009 1.34868 18.0576 1.37005C18.1134 1.39108 19.4726 2.1584 21.0778 3.0752ZM18.5537 7.20304V8.36319H15.6006H12.6475V7.20304V6.04288H15.6006H18.5537V7.20304ZM23.335 7.20304V8.36319H21.5772H19.8193V7.20304V6.04288H21.5772H23.335V7.20304ZM16.1631 10.789V11.9491H14.4053H12.6475V10.789V9.62882H14.4053H16.1631V10.789ZM23.335 10.789V11.9491H20.3818H17.4287V10.789V9.62882H20.3818H23.335V10.789ZM18.5537 14.4101V15.6054H15.6006H12.6475V14.4101V13.2148H15.6006H18.5537V14.4101ZM23.335 14.4101V15.6054H21.5772H19.8193V14.4101V13.2148H21.5772H23.335V14.4101ZM16.1631 17.996V19.1913H14.4053H12.6475V17.996V16.8007H14.4053H16.1631V17.996ZM23.335 17.996V19.1913H20.3818H17.4287V17.996V16.8007H20.3818H23.335V17.996ZM18.5537 21.5819V22.7773H15.6006H12.6475V21.5819V20.3866H15.6006H18.5537V21.5819ZM23.335 21.5819V22.7773H21.5772H19.8193V21.5819V20.3866H21.5772H23.335V21.5819ZM16.1631 25.203V26.3632H14.4053H12.6475V25.203V24.0429H14.4053H16.1631V25.203ZM23.335 25.203V26.3632H20.3818H17.4287V25.203V24.0429H20.3818H23.335V25.203ZM18.5537 28.789V29.9491H15.6006H12.6475V28.789V27.6288H15.6006H18.5537V28.789ZM23.335 28.789V29.9491H21.5772H19.8193V28.789V27.6288H21.5772H23.335V28.789ZM24.6006 31.7773V32.3398H17.9912H11.3818V31.7773V31.2148H17.9912H24.6006V31.7773ZM26.3584 34.203V34.8007H17.9912H9.62403V34.203V33.6054H17.9912H26.3584V34.203Z" fill="#222222"/>
</g>
</g>
</svg>
