<svg width="36" height="36" viewBox="0 0 36 36" fill="none" xmlns="http://www.w3.org/2000/svg">
<g id="fence">
<g id="Group 334">
<path id="fence (1) 1 (Traced)" fill-rule="evenodd" clip-rule="evenodd" d="M1.84036 4.10026L1.6875 4.26303V18.0099V31.7568L1.8502 31.9097C2.0058 32.0559 2.07309 32.0626 3.38484 32.0626C4.72795 32.0626 4.75995 32.0591 4.90964 31.8999C5.04485 31.7559 5.0625 31.6585 5.0625 31.0561V30.3751H10.6875H16.3125V31.0659C16.3125 32.0882 16.2689 32.0626 18.0098 32.0626C19.353 32.0626 19.3849 32.0591 19.5346 31.8999C19.6699 31.7559 19.6875 31.6585 19.6875 31.0561V30.3751H25.3125H30.9375V31.0659C30.9375 32.0882 30.8939 32.0626 32.6348 32.0626C33.978 32.0626 34.0099 32.0591 34.1596 31.8999L34.3125 31.7371V17.9902V4.24335L34.1498 4.09042C33.9942 3.94424 33.9269 3.93756 32.6152 3.93756C31.272 3.93756 31.2401 3.941 31.0904 4.10026C30.9551 4.24426 30.9375 4.34157 30.9375 4.94401V5.62506H25.3125H19.6875V4.93417C19.6875 3.91196 19.7311 3.93756 17.9902 3.93756C16.647 3.93756 16.6151 3.941 16.4654 4.10026C16.3301 4.24426 16.3125 4.34157 16.3125 4.94401V5.62506H10.6875H5.0625V4.93417C5.0625 3.91196 5.10609 3.93756 3.36516 3.93756C2.02205 3.93756 1.99005 3.941 1.84036 4.10026ZM3.9375 18.0001V30.9376H3.375H2.8125V18.0001V5.06256H3.375H3.9375V18.0001ZM18.5625 18.0001V30.9376H18H17.4375V18.0001V5.06256H18H18.5625V18.0001ZM33.1875 18.0001V30.9376H32.625H32.0625V18.0001V5.06256H32.625H33.1875V18.0001ZM16.3125 7.31256V7.87506H10.6875H5.0625V7.31256V6.75006H10.6875H16.3125V7.31256ZM30.9375 7.31256V7.87506H25.3125H19.6875V7.31256V6.75006H25.3125H30.9375V7.31256ZM7.03125 18.0001V27.0001H6.04688H5.0625V18.0001V9.00006H6.04688H7.03125V18.0001ZM10.125 18.0001V27.0001H9.14062H8.15625V18.0001V9.00006H9.14062H10.125V18.0001ZM13.2188 18.0001V27.0001H12.2344H11.25V18.0001V9.00006H12.2344H13.2188V18.0001ZM16.3125 18.0001V27.0001H15.3281H14.3438V18.0001V9.00006H15.3281H16.3125V18.0001ZM21.6562 18.0001V27.0001H20.6719H19.6875V18.0001V9.00006H20.6719H21.6562V18.0001ZM24.75 18.0001V27.0001H23.7656H22.7812V18.0001V9.00006H23.7656H24.75V18.0001ZM27.8438 18.0001V27.0001H26.8594H25.875V18.0001V9.00006H26.8594H27.8438V18.0001ZM30.9375 18.0001V27.0001H29.9531H28.9688V18.0001V9.00006H29.9531H30.9375V18.0001ZM16.3125 28.6876V29.2501H10.6875H5.0625V28.6876V28.1251H10.6875H16.3125V28.6876ZM30.9375 28.6876V29.2501H25.3125H19.6875V28.6876V28.1251H25.3125H30.9375V28.6876Z" fill="#222222"/>
</g>
</g>
</svg>
