<svg width="20" height="20" viewBox="0 0 20 20" fill="none" xmlns="http://www.w3.org/2000/svg">
<g id="tg" clip-path="url(#clip0_61_1609)">
<path id="Vector" d="M1.37492 9.28528C6.74362 6.89713 10.3235 5.32266 12.1149 4.56189C17.2292 2.38997 18.2919 2.01266 18.9846 2.00012C19.1369 1.99751 19.4776 2.03604 19.6982 2.21881C19.8846 2.3732 19.9358 2.58174 19.9603 2.72805C19.9849 2.87443 20.0154 3.20782 19.9911 3.46828C19.7139 6.44151 18.5148 13.6568 17.9046 16.9869C17.6465 18.396 17.1382 18.8684 16.6461 18.9147C15.5766 19.0151 14.7645 18.1931 13.7287 17.4998C12.1078 16.415 11.1922 15.7396 9.61878 14.6811C7.80054 13.4577 8.97924 12.7853 10.0155 11.6864C10.2866 11.3988 14.9987 7.02267 15.0899 6.62574C15.1013 6.57605 15.1119 6.39097 15.0042 6.29328C14.8966 6.19559 14.7376 6.22897 14.6229 6.25551C14.4604 6.2932 11.871 8.04067 6.85485 11.4979C6.11985 12.0132 5.45416 12.2642 4.85769 12.2511C4.20016 12.2366 2.93531 11.8715 1.995 11.5594C0.841692 11.1766 -0.0749707 10.9743 0.00484473 10.3242C0.0464217 9.98559 0.503099 9.63928 1.37492 9.28528Z" fill="#009FE3"/>
</g>
<defs>
<clipPath id="clip0_61_1609">
<rect width="20" height="20" fill="white"/>
</clipPath>
</defs>
</svg>
