<svg width="20" height="20" viewBox="0 0 20 20" fill="none" xmlns="http://www.w3.org/2000/svg">
<g id="viber">
<g id="Group 8">
<path id="Layer 1" fill-rule="evenodd" clip-rule="evenodd" d="M10.1393 1.07272C9.68014 1.28128 9.57851 2.02644 9.97358 2.28786C10.117 2.3828 10.1842 2.39827 10.9816 2.52035C14.6174 3.07686 16.4434 4.91435 17.0114 8.58812C17.0509 8.843 17.0831 9.14463 17.0831 9.25842C17.0831 9.83953 17.3498 10.1451 17.8577 10.1457C18.498 10.1465 18.6647 9.57165 18.4847 7.98412C18.1307 4.86208 15.5956 2.00075 12.4923 1.22064C11.6356 1.00527 10.4516 0.93082 10.1393 1.07272ZM3.63781 1.9515C1.50267 2.52095 0.494009 4.40037 1.24909 6.40232C3.11498 11.3493 7.00338 15.5794 11.9686 18.0638C14.1017 19.1311 14.6782 19.2209 15.8001 18.6602C17.571 17.7753 18.4988 15.8937 17.7033 14.8004C17.4361 14.4332 15.9484 13.265 14.8955 12.5956C13.6527 11.8055 12.697 11.9456 11.8556 13.0411C11.3269 13.7295 11.0385 13.7773 10.1268 13.3276C8.50096 12.5256 7.34607 11.3899 6.62347 9.88228C6.12612 8.84458 6.20096 8.47128 7.03273 7.84137C8.3225 6.86463 8.14597 5.82174 6.29555 3.48567C5.20861 2.11344 4.52035 1.71613 3.63781 1.9515ZM10.4205 3.35754C10.148 3.48131 10.0178 3.72185 10.0185 4.09993C10.0193 4.49369 10.2675 4.71687 10.7997 4.80236C13.34 5.21032 14.4558 6.36419 14.7261 8.8629C14.7962 9.51017 14.9756 9.70237 15.4887 9.67953C16.0415 9.65492 16.1472 9.50384 16.1634 8.71551C16.2053 6.67889 15.0632 4.85533 13.1505 3.90502C12.2317 3.44851 10.8363 3.16868 10.4205 3.35754ZM10.9589 5.68461C10.5482 5.74486 10.3233 5.97513 10.2747 6.38545C10.225 6.80509 10.4675 7.03005 11.1074 7.15804C11.8958 7.31572 12.2963 7.74808 12.4425 8.59926C12.557 9.2659 12.8934 9.5418 13.4092 9.39185C13.7672 9.28777 13.9199 9.00617 13.919 8.45188C13.9163 6.96379 12.3326 5.4832 10.9589 5.68461Z" fill="#7F40BD"/>
</g>
</g>
</svg>
