<svg width="30" height="30" viewBox="0 0 30 30" fill="none" xmlns="http://www.w3.org/2000/svg">
<g id="vk 1">
<path id="Vector" d="M21.9739 8.42063L21.6738 9.06201C21.6738 9.06201 20.2508 12.0843 18.5182 13.9882C17.9612 14.6043 17.6784 14.7898 17.3708 14.7898C17.1234 14.7898 17.009 14.5835 17.009 14.0286V8.28009H11.6217V8.72044C11.6217 9.36182 12.6061 9.50697 12.6061 11.2445V14.8292C12.6061 15.5512 12.5666 15.8306 12.2257 15.8306C11.3199 15.8306 9.1694 12.7268 7.96181 9.20255L7.66172 8.28009H4.14236C3.75989 8.28009 3.47852 8.54044 3.47852 8.92147C3.47852 9.62275 4.30335 12.8662 7.53989 17.2136C9.71112 20.1376 12.5666 21.7199 15.1393 21.7199C16.7087 21.7199 17.0894 21.4595 17.0894 20.7994V18.5559C17.0894 17.9946 17.3109 17.7544 17.6334 17.7544C17.9952 17.7544 18.6328 17.8696 20.1252 19.337C20.1269 19.337 22.5176 21.7199 22.5176 21.7199H25.9359C26.2377 21.7199 26.5188 21.5805 26.5188 21.0797C26.5188 20.4176 25.6545 19.2365 24.3271 17.8348C23.7851 17.1139 22.9001 16.332 22.6187 15.9708C22.2175 15.5509 22.3373 15.311 22.6187 14.8704C22.6187 14.8704 25.6545 10.6031 25.9563 9.20227C26.0577 8.70172 25.8362 8.42035 25.3132 8.42035L21.9739 8.42063Z" fill="white"/>
</g>
</svg>
