<svg width="20" height="20" viewBox="0 0 20 20" fill="none" xmlns="http://www.w3.org/2000/svg">
<g id="calc">
<g id="Group 5">
<path id="calculator 1 (Traced)" fill-rule="evenodd" clip-rule="evenodd" d="M4.4592 0.883906C3.55487 1.07813 2.77916 1.84422 2.5628 2.75676C2.47745 3.11672 2.47987 16.8986 2.56537 17.2611C2.77819 18.1638 3.56881 18.9336 4.47873 19.124C4.88807 19.2096 15.1241 19.2096 15.5334 19.124C16.2685 18.9702 16.9193 18.4538 17.2708 17.7453C17.5186 17.2459 17.5049 17.6972 17.5049 10.0029C17.5049 2.17602 17.5259 2.75996 17.2232 2.17527C16.8912 1.53395 16.2294 1.02734 15.5334 0.881719C15.1356 0.798477 4.84752 0.800508 4.4592 0.883906ZM15.4039 2.62996C15.6025 2.74668 15.711 2.8775 15.7814 3.08484C15.846 3.27535 15.846 16.7304 15.7814 16.9209C15.711 17.1282 15.6025 17.259 15.4039 17.3757L15.2209 17.4833H10.0061H4.79123L4.60823 17.3757C4.40967 17.259 4.30112 17.1282 4.2308 16.9209C4.1667 16.7319 4.16616 3.27625 4.23022 3.08484C4.32416 2.80422 4.536 2.61156 4.8303 2.53902C4.89475 2.52313 7.25901 2.51289 10.0842 2.51625L15.2209 2.52238L15.4039 2.62996ZM6.41682 4.20211C6.09182 4.30348 5.82897 4.65664 5.82725 4.99434C5.82541 5.35023 6.08756 5.70355 6.4285 5.8048C6.71745 5.89062 13.2947 5.89062 13.5837 5.8048C13.9205 5.70477 14.1858 5.35152 14.1858 5.00285C14.1858 4.65418 13.9205 4.30094 13.5837 4.2009C13.3065 4.11859 6.68104 4.11973 6.41682 4.20211ZM6.31432 7.5757C5.89983 7.76402 5.71772 8.25563 5.90752 8.67402C6.01471 8.91035 6.08498 8.98215 6.31467 9.09004C6.63221 9.23918 6.94108 9.20152 7.20838 8.98102C7.40077 8.82234 7.50412 8.59602 7.50522 8.33098C7.50772 7.72898 6.86885 7.32379 6.31432 7.5757ZM9.621 7.58719C9.13748 7.82652 9.01334 8.47898 9.37498 8.88012C9.72467 9.26793 10.2277 9.28332 10.603 8.91766C11.1285 8.40547 10.75 7.50277 10.0097 7.50289C9.86463 7.50289 9.73405 7.53121 9.621 7.58719ZM12.9944 7.56766C12.6848 7.73055 12.5056 8.01137 12.5069 8.33137C12.5089 8.81609 12.8788 9.18254 13.3655 9.18195C13.5219 9.18176 13.8609 9.03426 13.959 8.92371C14.0661 8.80305 14.184 8.50969 14.1847 8.36223C14.1862 8.02867 13.9882 7.70758 13.7003 7.5768C13.5041 7.4877 13.1549 7.4832 12.9944 7.56766ZM6.31467 10.9157C6.08498 11.0236 6.01471 11.0954 5.90752 11.3317C5.7708 11.633 5.81393 11.9457 6.02791 12.2052C6.51916 12.8007 7.50842 12.4455 7.50522 11.6747C7.50256 11.0372 6.88889 10.6459 6.31467 10.9157ZM9.69358 10.8853C9.61838 10.9178 9.49041 11.0091 9.4092 11.0882C8.88198 11.6016 9.26221 12.5029 10.0061 12.5029C10.4203 12.5029 10.7816 12.196 10.8419 11.7928C10.9351 11.1696 10.2638 10.639 9.69358 10.8853ZM13.0725 10.8646C12.8978 10.9159 12.6618 11.1287 12.58 11.3087C12.3269 11.8659 12.7308 12.5045 13.3346 12.502C13.8193 12.5 14.1858 12.1301 14.1852 11.6435C14.185 11.4871 14.0375 11.148 13.9269 11.0499C13.7149 10.8618 13.3511 10.7829 13.0725 10.8646ZM9.75444 14.1997C9.55397 14.2738 9.42135 14.3741 9.31264 14.5338C8.93096 15.0946 9.32639 15.8387 10.0061 15.8387C10.8969 15.8387 11.1672 14.6489 10.3681 14.245C10.1842 14.1521 9.93334 14.1336 9.75444 14.1997Z" fill="#08A76D"/>
</g>
</g>
</svg>
