<svg width="24" height="24" viewBox="0 0 24 24" fill="none" xmlns="http://www.w3.org/2000/svg">
<g id="call">
<g id="call 1 (Traced)">
<path id="Layer 1" fill-rule="evenodd" clip-rule="evenodd" d="M6.00353 2.77367C5.7797 2.83597 3.42831 5.19622 3.19679 5.591C2.48115 6.81125 2.65862 8.46111 3.71233 10.3836C5.47614 13.6017 10.0891 18.2652 13.378 20.1552C15.4362 21.3378 17.1371 21.5583 18.4122 20.8075C18.7059 20.6346 20.9807 18.4294 21.153 18.1505C21.273 17.9564 21.285 17.57 21.1773 17.3669C21.0719 17.1678 17.9655 14.0885 17.7731 13.9923C17.4924 13.8519 17.2839 13.9133 15.566 14.6419L13.9488 15.3279L11.3135 12.6917L8.67812 10.0555L9.36325 8.43828C10.1069 6.68281 10.155 6.51369 9.99653 6.20825C9.94192 6.10301 9.21212 5.33853 8.29211 4.42283C6.48498 2.62414 6.5005 2.63534 6.00353 2.77367ZM16.6086 3.32867C16.2498 3.54734 16.2695 3.33556 16.2695 6.98516C16.2695 10.1534 16.2721 10.2472 16.3627 10.3957C16.6446 10.8582 17.3937 10.8582 17.6756 10.3957C17.8213 10.1568 17.8213 3.8135 17.6756 3.57458C17.473 3.24228 16.9485 3.12139 16.6086 3.32867ZM13.6086 4.82867C13.2672 5.0368 13.2695 5.02198 13.2695 6.98516C13.2695 8.65667 13.2741 8.75047 13.3627 8.89573C13.6446 9.35825 14.3937 9.35825 14.6756 8.89573C14.8199 8.65925 14.8199 5.31106 14.6756 5.07458C14.473 4.74228 13.9485 4.62139 13.6086 4.82867ZM19.6086 5.57867C19.2907 5.77245 19.2695 5.8603 19.2695 6.98516C19.2695 7.90827 19.2773 8.00581 19.3627 8.14573C19.6446 8.60825 20.3937 8.60825 20.6756 8.14573C20.8175 7.91309 20.8175 6.05722 20.6756 5.82458C20.473 5.49228 19.9485 5.37139 19.6086 5.57867Z" fill="#EA2026"/>
<path id="Layer 2" fill-rule="evenodd" clip-rule="evenodd" d="M6.00353 2.77367C5.7797 2.83597 3.42831 5.19622 3.19679 5.591C2.48115 6.81125 2.65862 8.46111 3.71233 10.3836C5.47614 13.6017 10.0891 18.2652 13.378 20.1552C15.4362 21.3378 17.1371 21.5583 18.4122 20.8075C18.7059 20.6346 20.9807 18.4294 21.153 18.1505C21.273 17.9564 21.285 17.57 21.1773 17.3669C21.0719 17.1678 17.9655 14.0885 17.7731 13.9923C17.4924 13.8519 17.2839 13.9133 15.566 14.6419L13.9488 15.3279L11.3135 12.6917L8.67812 10.0555L9.36325 8.43828C10.1069 6.68281 10.155 6.51369 9.99653 6.20825C9.94192 6.10301 9.21212 5.33853 8.29211 4.42283C6.48498 2.62414 6.5005 2.63534 6.00353 2.77367ZM16.6086 3.32867C16.2498 3.54734 16.2695 3.33556 16.2695 6.98516C16.2695 10.1534 16.2721 10.2472 16.3627 10.3957C16.6446 10.8582 17.3937 10.8582 17.6756 10.3957C17.8213 10.1568 17.8213 3.8135 17.6756 3.57458C17.473 3.24228 16.9485 3.12139 16.6086 3.32867ZM13.6086 4.82867C13.2672 5.0368 13.2695 5.02198 13.2695 6.98516C13.2695 8.65667 13.2741 8.75047 13.3627 8.89573C13.6446 9.35825 14.3937 9.35825 14.6756 8.89573C14.8199 8.65925 14.8199 5.31106 14.6756 5.07458C14.473 4.74228 13.9485 4.62139 13.6086 4.82867ZM19.6086 5.57867C19.2907 5.77245 19.2695 5.8603 19.2695 6.98516C19.2695 7.90827 19.2773 8.00581 19.3627 8.14573C19.6446 8.60825 20.3937 8.60825 20.6756 8.14573C20.8175 7.91309 20.8175 6.05722 20.6756 5.82458C20.473 5.49228 19.9485 5.37139 19.6086 5.57867Z" fill="#EA2026"/>
</g>
</g>
</svg>
