<svg width="24" height="24" viewBox="0 0 24 24" fill="none" xmlns="http://www.w3.org/2000/svg">
<path fill-rule="evenodd" clip-rule="evenodd" d="M6.38415 2.06821C6.26642 2.10529 6.11229 2.16663 6.0417 2.20457C5.74125 2.36608 3.57692 3.95628 3.3156 4.2076C2.74484 4.75631 2.30178 5.51871 2.09836 6.30182C1.96933 6.79878 1.96681 7.81582 2.09338 8.32755C2.21406 8.81546 3.19974 10.9817 3.7417 11.9499C5.58809 15.2487 8.18923 17.9398 11.4142 19.8875C12.5725 20.5872 14.9038 21.6821 15.6426 21.8736C17.0594 22.2408 18.6738 21.7917 19.7201 20.7394C20.07 20.3875 21.6198 18.2689 21.8203 17.8686C21.9921 17.5253 22.0347 16.8581 21.9118 16.4354C21.7629 15.923 21.517 15.6652 20.031 14.4635C18.4759 13.2059 18.1693 13.0181 17.6058 12.9778C16.8318 12.9224 16.2627 13.2255 15.6636 14.0122C15.4523 14.2897 15.2699 14.5167 15.2584 14.5167C15.2081 14.5167 14.3249 13.9965 13.9836 13.7658C12.5831 12.8194 11.4085 11.6744 10.4411 10.3129C10.0897 9.81832 9.43596 8.73866 9.47219 8.71276C9.82379 8.46129 10.3867 8.00816 10.5154 7.87287C10.6095 7.77408 10.754 7.54877 10.8365 7.37216C10.9679 7.09109 10.9866 6.98764 10.9866 6.54265C10.9866 5.8511 10.8818 5.64453 9.93329 4.46603C8.19522 2.30668 8.1713 2.28244 7.59604 2.10101C7.21179 1.9798 6.70847 1.9662 6.38415 2.06821ZM8.1104 4.99066C9.26069 6.40715 9.32646 6.50176 9.25459 6.63604C9.22585 6.68977 8.86311 6.98443 8.44852 7.29082C7.32739 8.11947 7.28618 8.25856 7.83527 9.36235C9.30356 12.314 11.8133 14.7931 14.8094 16.2513C15.7107 16.69 15.885 16.6243 16.7133 15.5335C17.1636 14.9405 17.3341 14.7541 17.4359 14.7429C17.5395 14.7316 17.8433 14.9497 18.8001 15.7221C20.3346 16.9609 20.3085 16.9357 20.2314 17.1049C20.1041 17.3843 18.6622 19.3215 18.3907 19.578C17.8779 20.0623 17.253 20.2768 16.4929 20.2293C16.0145 20.1995 15.5342 20.0192 14.0221 19.3019C10.2798 17.5267 7.23497 14.6557 5.20673 10.9896C4.7954 10.2461 3.90686 8.30181 3.81138 7.93623C3.60176 7.13364 3.83445 6.21449 4.40403 5.59551C4.52176 5.4676 5.11179 5.00334 5.71519 4.56392C6.60529 3.91567 6.84253 3.767 6.97247 3.77572C7.1122 3.78514 7.25696 3.93969 8.1104 4.99066Z" fill="white"/>
</svg>
