<svg width="24" height="24" viewBox="0 0 24 24" fill="none" xmlns="http://www.w3.org/2000/svg">
<g id="shield">
<g id="Group 14">
<path id="shield 1 (Traced)" fill-rule="evenodd" clip-rule="evenodd" d="M11.2308 0.121211C9.22803 0.539176 5.26391 1.9384 3.50809 2.84696C2.5291 3.35358 2.17648 3.8275 2.03629 4.82482C1.9625 5.35017 2.01094 12.6912 2.09484 13.6855C2.30661 16.1967 3.37045 18.3191 5.39338 20.2664C6.84397 21.6627 8.97876 22.9741 11.0921 23.7671C11.9195 24.0776 12.0663 24.0776 12.8878 23.7675C15.5272 22.7713 17.8967 21.1893 19.4374 19.3944C20.6441 17.9888 21.3592 16.5722 21.734 14.8454C21.8604 14.2628 21.8759 14.0366 21.9205 12.1113C21.9991 8.71388 22.0029 4.92215 21.9279 4.57168C21.8258 4.09401 21.5633 3.61572 21.2477 3.33193C20.4013 2.571 15.1969 0.612971 12.6582 0.100443C11.979 -0.0367062 11.9878 -0.0368167 11.2308 0.121211ZM12.9445 2.00263C14.6509 2.43993 18.0861 3.66356 19.4734 4.3282C20.0765 4.61714 20.1414 4.70877 20.1841 5.33188C20.2002 5.56691 20.1881 7.56129 20.1571 9.76379C20.1113 13.0245 20.0844 13.8556 20.0123 14.2378C19.8068 15.3292 19.2687 16.5591 18.563 17.5508C18.1252 18.166 17.1152 19.2008 16.4505 19.7153C15.2245 20.6641 13.6999 21.5208 12.2459 22.0779L11.9905 22.1758L11.4173 21.944C9.41578 21.1346 7.6556 19.9825 6.34094 18.6215C5.09395 17.3304 4.43295 16.1511 4.03868 14.514L3.89905 13.9341L3.84204 9.53876C3.77885 4.6653 3.77311 4.76959 4.11745 4.53859C5.05468 3.90991 11.0797 1.82284 11.9879 1.81229C12.1005 1.81097 12.531 1.89664 12.9445 2.00263ZM15.401 8.47057C15.2818 8.52194 14.4297 9.33042 13.1784 10.5796L11.1491 12.6052L10.2509 11.7139C9.50167 10.9703 9.3184 10.8162 9.14562 10.7842C8.72445 10.7061 8.32422 10.8942 8.13559 11.259C8.03241 11.4585 8.03153 11.8797 8.13388 12.0726C8.25468 12.3001 10.6567 14.6664 10.8339 14.7323C11.1107 14.8353 11.3856 14.8011 11.648 14.631C11.783 14.5434 12.9416 13.4187 14.2225 12.1316C16.27 10.0742 16.559 9.76297 16.6138 9.55583C16.7003 9.22884 16.6347 8.95614 16.4097 8.70703C16.1307 8.39821 15.7668 8.31293 15.401 8.47057Z" fill="white"/>
</g>
</g>
</svg>
