<svg width="24" height="24" viewBox="0 0 24 24" fill="none" xmlns="http://www.w3.org/2000/svg">
<g id="flag" clip-path="url(#clip0_61_1028)">
<g id="Group 13">
<path id="flag 1 (Traced)" fill-rule="evenodd" clip-rule="evenodd" d="M3.32325 0.108015C3.23564 0.166515 3.12708 0.287828 3.08203 0.377546C3.00464 0.531531 3.00005 1.18389 3 12.0024C2.99991 23.0679 3.00291 23.4697 3.08672 23.6274C3.34613 24.1155 3.98105 24.1314 4.33153 23.6583L4.4296 23.526L4.44202 17.7404L4.45449 11.9547H6.7253H8.99611L9.00975 13.9586C9.0233 15.9537 9.02381 15.9633 9.1306 16.135C9.19383 16.2367 9.32072 16.3476 9.43992 16.4053C9.64181 16.503 9.64932 16.5031 15.0832 16.4906C20.4959 16.4782 20.525 16.4777 20.6537 16.3815C20.7249 16.3284 20.8267 16.2266 20.8798 16.1554C20.9761 16.0265 20.9765 16.0019 20.9888 10.1657L21.001 4.30534L20.9023 4.12975C20.848 4.03314 20.737 3.9138 20.6557 3.86458C20.515 3.77945 20.3525 3.77387 17.3671 3.75161L14.2265 3.72817L14.1939 3.3693C14.1085 2.42744 13.4945 1.54337 12.6039 1.07987C11.9611 0.745328 12.069 0.753062 8.0528 0.752312L4.4573 0.751609L4.42589 0.584218C4.33533 0.101453 3.72656 -0.161422 3.32325 0.108015ZM11.4545 2.20342C11.9965 2.2922 12.4226 2.60964 12.6518 3.09536L12.7733 3.35317L12.7864 7.15408L12.7994 10.955L12.5286 10.8257C11.9371 10.5434 12.0182 10.5485 8.06738 10.5485H4.45303V6.35317V2.15786L7.81631 2.15814C9.74255 2.15828 11.2971 2.17764 11.4545 2.20342ZM19.5468 10.1266V15.0485H16.6874C15.1148 15.0485 13.828 15.0405 13.828 15.0307C13.828 15.0209 13.8798 14.8997 13.943 14.7612C14.2344 14.1231 14.2209 14.3605 14.2386 9.57583L14.2548 5.20473H16.9008H19.5468V10.1266ZM11.869 12.1065C12.2028 12.2593 12.4916 12.5482 12.6476 12.8853C12.7449 13.0957 12.7703 13.2227 12.771 13.5039C12.772 13.8101 12.7515 13.8996 12.6184 14.1699C12.4502 14.5115 12.2123 14.7465 11.8657 14.9135C11.6859 15.0001 11.5451 15.0218 11.0507 15.0389L10.453 15.0595V13.5008V11.9421L11.03 11.9643C11.5202 11.9832 11.6464 12.0046 11.869 12.1065Z" fill="white"/>
</g>
</g>
<defs>
<clipPath id="clip0_61_1028">
<rect width="24" height="24" fill="white"/>
</clipPath>
</defs>
</svg>
