<svg width="24" height="24" viewBox="0 0 24 24" fill="none" xmlns="http://www.w3.org/2000/svg">
<g id="doc">
<g id="Group 15">
<path id="file 1 (Traced)" fill-rule="evenodd" clip-rule="evenodd" d="M4.56272 0.0711719C4.12083 0.193625 3.49373 0.528132 3.16765 0.815414C2.76531 1.16984 2.37463 1.76611 2.18087 2.32139L2.01974 2.78326L2.00357 11.7319C1.99255 17.8501 2.00686 20.8069 2.04889 21.08C2.22088 22.1973 2.89625 23.1438 3.86721 23.6284C4.65094 24.0196 4.22088 23.9989 11.5663 23.9996C18.9724 24.0004 18.5433 24.0221 19.3398 23.6063C20.1081 23.2051 20.7412 22.4089 21.0233 21.4889C21.1241 21.1602 21.1295 20.763 21.1295 13.7237C21.1295 6.68592 21.1241 6.28733 21.0234 5.96108C20.8746 5.47877 20.6688 5.09138 20.3474 4.68846C20.1955 4.49794 19.2572 3.53333 18.2622 2.54493C16.3936 0.688689 16.0452 0.399906 15.369 0.147034L15.0098 0.0126881L9.92922 0.00235379C5.7768 -0.00613302 4.79643 0.00645272 4.56272 0.0711719ZM13.0757 3.87234C13.0757 4.9952 13.1006 6.04549 13.1311 6.20622C13.2602 6.88689 13.7589 7.52837 14.3881 7.82321L14.7211 7.97927L16.9871 7.99676L19.2532 8.01431L19.2528 14.4052C19.2526 18.5768 19.232 20.8698 19.1935 21.0084C19.0834 21.4049 18.7915 21.7601 18.4201 21.9495L18.0778 22.124H11.5746H5.07147L4.72911 21.9495C4.35419 21.7583 4.06194 21.3999 3.95387 20.9984C3.91426 20.8513 3.89966 17.8248 3.90982 11.8674L3.92494 2.95646L4.10415 2.63892C4.31124 2.27191 4.63241 2.02071 5.03181 1.91339C5.24646 1.85565 6.20287 1.83753 9.19312 1.83452L13.0757 1.83066V3.87234ZM17.117 4.12163L19.0511 6.07406L17.0882 6.08936C15.294 6.10333 15.1191 6.09618 15.0531 6.00617C14.9987 5.93204 14.9809 5.43161 14.9809 3.98261C14.9809 2.16643 14.9866 2.06067 15.0819 2.11338C15.1375 2.14409 16.0533 3.04779 17.117 4.12163ZM7.57277 9.88072C6.82859 10.1488 6.72213 11.0669 7.37873 11.5534C7.5405 11.6733 7.57312 11.6742 11.5746 11.6742C15.5761 11.6742 15.6087 11.6733 15.7705 11.5534C15.8602 11.487 15.9942 11.3441 16.0685 11.2359C16.1812 11.0716 16.1996 10.9842 16.1802 10.7064C16.1539 10.3296 16.0301 10.1217 15.7254 9.9422C15.5352 9.8302 15.4134 9.82633 11.6612 9.81404C8.49985 9.80364 7.75284 9.81582 7.57277 9.88072ZM7.57277 13.5757C6.82859 13.8438 6.72213 14.7618 7.37873 15.2484C7.5405 15.3682 7.57312 15.3691 11.5746 15.3691C15.5761 15.3691 15.6087 15.3682 15.7705 15.2484C15.8602 15.1819 15.9942 15.039 16.0685 14.9308C16.1812 14.7666 16.1996 14.6791 16.1802 14.4014C16.1539 14.0245 16.0301 13.8166 15.7254 13.6371C15.5352 13.5251 15.4134 13.5213 11.6612 13.509C8.49985 13.4986 7.75284 13.5108 7.57277 13.5757ZM7.57277 17.27C7.15317 17.4223 6.95595 17.7062 6.95595 18.1578C6.95595 18.4712 7.0982 18.7355 7.37873 18.9433C7.53738 19.0609 7.60014 19.0641 9.72715 19.0641C11.8542 19.0641 11.9169 19.0609 12.0756 18.9433C12.1652 18.8769 12.2993 18.734 12.3736 18.6258C12.4863 18.4615 12.5047 18.3741 12.4853 18.0963C12.4589 17.7195 12.3352 17.5116 12.0304 17.3321C11.8458 17.2233 11.7173 17.2159 9.81375 17.2033C8.21003 17.1927 7.74765 17.2065 7.57277 17.27Z" fill="white"/>
</g>
</g>
</svg>
