<svg width="24" height="24" viewBox="0 0 24 24" fill="none" xmlns="http://www.w3.org/2000/svg">
<path fill-rule="evenodd" clip-rule="evenodd" d="M2.11148 2.33039C1.21903 2.56584 0.437203 3.29006 0.13725 4.15917C0.0288281 4.47328 0.0255469 4.52582 0.0255469 5.95387V7.425L5.25211 11.3136C8.12672 13.4524 10.5964 15.2621 10.7402 15.3352C11.2825 15.611 12.0364 15.7065 12.6115 15.5723C13.2042 15.4341 13.3723 15.3176 18.7304 11.3317L23.9787 7.42757V5.95514C23.9787 4.52573 23.9754 4.47328 23.867 4.15917C23.5634 3.27956 22.7784 2.55914 21.8712 2.32753C21.4591 2.22234 2.51062 2.22506 2.11148 2.33039ZM21.5928 4.23426C21.7803 4.33696 22.0221 4.61292 22.0679 4.77656C22.0875 4.84701 22.1037 5.25117 22.1037 5.67478V6.44493L17.3224 10.0027C14.6927 11.9594 12.4877 13.5886 12.4223 13.623C12.2307 13.7241 11.9842 13.7519 11.7766 13.6961C11.6368 13.6584 10.2405 12.6453 6.74184 10.0429L1.90055 6.44175L1.90116 5.62631C1.90162 4.95098 1.91531 4.78589 1.9808 4.66547C2.08566 4.47262 2.36311 4.23318 2.52248 4.19807C2.59294 4.18256 2.67164 4.16268 2.69742 4.15392C2.7232 4.14515 6.9525 4.14173 12.0959 4.14632C20.7973 4.15406 21.4575 4.16015 21.5928 4.23426ZM0.0128437 14.6381L0.0256875 19.5765L0.138328 19.8782C0.388453 20.548 0.947719 21.1713 1.57242 21.4766C2.18723 21.777 1.46156 21.7585 12.1226 21.745L21.8224 21.7327L22.1241 21.6201C22.794 21.3697 23.4173 20.8105 23.7225 20.1859C24.0139 19.5894 24.0037 19.8049 23.9906 14.5307L23.9787 9.72328L23.0552 10.4077L22.1318 11.0921L22.1177 15.1468C22.1048 18.8574 22.0969 19.2138 22.024 19.3469C21.9213 19.5344 21.6454 19.7761 21.4817 19.8219C21.3143 19.8688 2.68987 19.8688 2.52248 19.8219C2.35884 19.7761 2.08289 19.5344 1.98019 19.3469C1.9073 19.2139 1.89933 18.857 1.88611 15.1468L1.87167 11.0921L1.11661 10.5296C0.701344 10.2202 0.280219 9.90693 0.180797 9.83339L0 9.69965L0.0128437 14.6381Z" fill="white"/>
</svg>
