<svg width="20" height="20" viewBox="0 0 20 20" fill="none" xmlns="http://www.w3.org/2000/svg">
<g clip-path="url(#clip0_61_961)">
<path fill-rule="evenodd" clip-rule="evenodd" d="M2.77787 0.868537C2.03951 1.03002 1.36655 1.58127 1.04116 2.29108C0.802913 2.8108 0.813733 2.4183 0.8251 10.1166L0.835491 17.1571L0.94014 17.4437C1.08979 17.8533 1.26698 18.1331 1.56186 18.4253C1.86104 18.7217 2.13975 18.898 2.54116 19.0447L2.82768 19.1493H9.99565H17.1636L17.4501 19.0447C17.8599 18.895 18.1396 18.7178 18.4318 18.423C18.7282 18.1238 18.9045 17.8451 19.0512 17.4437L19.1558 17.1571L19.1664 11.7972C19.1782 5.80787 19.1926 6.14791 18.9008 5.53959C18.7741 5.27541 18.6805 5.14897 18.4222 4.89326C17.967 4.44256 17.5343 4.23326 16.8849 4.14955L16.6842 4.12369L16.666 3.47244C16.65 2.90127 16.6353 2.78596 16.5471 2.53467C16.4063 2.13361 16.2286 1.85045 15.9315 1.55334C15.6376 1.2594 15.3571 1.08233 14.9501 0.933654L14.6636 0.829005L8.8433 0.821974C4.03533 0.816154 2.98037 0.82424 2.77787 0.868537ZM14.3901 2.54576C14.643 2.6219 14.8642 2.84197 14.9382 3.09127C14.9733 3.20932 14.9956 3.44916 14.9956 3.70721V4.12979L9.06791 4.12893C3.38608 4.12811 3.13358 4.12506 2.98116 4.05584C2.77276 3.96119 2.58975 3.73424 2.53381 3.50104C2.43959 3.10826 2.69143 2.66901 3.07936 2.54947C3.35033 2.46596 14.1132 2.46244 14.3901 2.54576ZM9.91752 5.84748C16.4665 5.8667 16.9374 5.87252 17.0527 5.93561C17.2284 6.03174 17.4036 6.25963 17.4531 6.45651C17.4794 6.56069 17.4956 7.10389 17.4956 7.87553V9.12576L15.2007 9.13994C12.6461 9.15576 12.7167 9.14893 12.1636 9.43362C11.7889 9.62651 11.2731 10.1444 11.0973 10.5044C10.5999 11.5226 10.7791 12.6496 11.5619 13.4253C11.8614 13.7221 12.1403 13.8984 12.5412 14.0442L12.8277 14.1485L15.1617 14.1604L17.4956 14.1723V15.4339C17.4956 16.8649 17.4801 16.9717 17.2346 17.223C16.9567 17.5076 17.4585 17.4892 9.99565 17.4892C2.5328 17.4892 3.03459 17.5076 2.75666 17.223C2.47991 16.9396 2.49565 17.3026 2.49565 11.1974V5.69936L2.70073 5.76315C2.88612 5.82076 3.57858 5.82889 9.91752 5.84748ZM17.4956 11.6688V12.4892H15.3925C13.0362 12.4892 13.0283 12.4884 12.7613 12.2277C12.4579 11.9314 12.4319 11.4681 12.7005 11.1424C12.9483 10.8417 12.8705 10.8504 15.3179 10.8494L17.4956 10.8485V11.6688Z" fill="white"/>
</g>
<defs>
<clipPath id="clip0_61_961">
<rect width="20" height="20" fill="white"/>
</clipPath>
</defs>
</svg>
