<svg width="30" height="30" viewBox="0 0 30 30" fill="none" xmlns="http://www.w3.org/2000/svg">
<g id="whatsapp 1">
<path id="Vector" d="M15.2289 2.39996C8.39692 2.39996 2.85793 7.89564 2.85793 14.6755C2.85793 16.9947 3.5066 19.1637 4.63312 21.0142L2.40039 27.6L9.24962 25.4241C11.0219 26.3964 13.0603 26.9511 15.2289 26.9511C22.0617 26.9511 27.6004 21.4546 27.6004 14.6755C27.6004 7.89564 22.0617 2.39996 15.2289 2.39996ZM21.3805 19.3374C21.0895 20.0589 19.7732 20.7174 19.1924 20.7477C18.6123 20.7785 18.5957 21.1974 15.4327 19.8233C12.27 18.4489 10.3672 15.1071 10.2172 14.8919C10.0671 14.6774 8.9921 13.1455 9.0501 11.6038C9.10848 10.0618 9.95274 9.33429 10.2541 9.03173C10.5551 8.72871 10.9002 8.67443 11.1109 8.67099C11.3599 8.66694 11.5213 8.66357 11.7056 8.67038C11.8898 8.67735 12.1664 8.63184 12.4059 9.26882C12.6453 9.90574 13.2183 11.4712 13.2916 11.6307C13.3649 11.7904 13.4102 11.9753 13.2974 12.1803C13.1842 12.3858 13.1263 12.5142 12.9621 12.6912C12.797 12.8683 12.6148 13.0874 12.4675 13.2227C12.3033 13.3727 12.1317 13.5362 12.3044 13.8566C12.477 14.1769 13.0724 15.2267 13.9795 16.0918C15.1452 17.2039 16.1506 17.5728 16.46 17.7409C16.7702 17.9098 16.9553 17.891 17.1477 17.6886C17.3392 17.4862 17.9711 16.8029 18.1937 16.4978C18.4162 16.192 18.6246 16.2519 18.9104 16.3668C19.1961 16.4823 20.7193 17.2981 21.0295 17.4666C21.3395 17.6347 21.5467 17.7213 21.6207 17.8547C21.6948 17.9886 21.6714 18.6158 21.3805 19.3374Z" fill="white"/>
</g>
</svg>
